<?xml version="1.0"?>
<svg xmlns="http://www.w3.org/2000/svg" viewBox="0 0 50 50">
    <path d="M 43.498047 2 C 41.014047 2 39 4.0160469 39 6.4980469 C 39 8.9830469 41.014047 11 43.498047 11 C 45.985047 11 48 8.9830469 48 6.4980469 C 48 4.0160469 45.985047 2 43.498047 2 z M 12.179688 5.015625 C 11.79625 4.9463906 11.390562 5.1054219 11.164062 5.4511719 C 10.861062 5.9131719 10.991125 6.5348906 11.453125 6.8378906 L 21.863281 13.652344 L 21.705078 13.759766 L 21.703125 13.769531 C 20.086125 14.727531 19 16.484047 19 18.498047 C 19 20.244047 19.816938 21.797641 21.085938 22.806641 L 21.082031 22.833984 L 28.617188 28.152344 L 23.769531 33.701172 C 23.296929 34.155982 23 34.791076 23 35.498047 C 23 35.879609 23.093137 36.238759 23.246094 36.5625 L 4.4863281 26.126953 A 1.0001 1.0001 0 0 0 4.0097656 25.994141 A 1.0001 1.0001 0 0 0 3.5136719 27.873047 L 38.308594 47.230469 A 1.0001 1.0001 0 0 0 38.386719 47.269531 C 38.386719 47.269531 39.711473 47.86887 41.40625 47.982422 C 43.101027 48.095973 45.350406 47.668575 46.84375 45.638672 A 1.0001 1.0001 0 1 0 45.232422 44.455078 C 44.209766 45.845175 42.836787 46.073277 41.539062 45.986328 C 40.249024 45.899898 39.229006 45.45261 39.216797 45.447266 L 25.779297 37.972656 C 26.486621 37.89271 27.101452 37.524158 27.503906 36.980469 L 27.507812 36.984375 L 34.398438 29.128906 L 34.396484 29.111328 C 34.7676 28.674852 35 28.115275 35 27.498047 C 35 26.628401 34.554272 25.865663 33.878906 25.417969 L 27.429688 20.369141 L 29.873047 18.896484 L 21.865234 13.652344 L 23.669922 12.445312 L 31.775391 17.751953 L 33 17.013672 L 33 19.572266 C 33 20.547266 33.491594 21.457234 34.308594 21.990234 L 39.8125 25.609375 L 39.816406 25.603516 C 40.148357 25.849139 40.553582 26 40.998047 26 C 42.103047 26 43 25.103047 43 23.998047 C 43 23.234115 42.564952 22.578623 41.933594 22.242188 L 41.939453 22.234375 L 37 19.152344 L 37 11 C 37 11 37 10.998047 37 10.998047 C 37 8.7920469 35.209047 7 32.998047 7 C 32.120562 7 31.315586 7.2919328 30.65625 7.7714844 L 23.671875 12.443359 L 12.548828 5.1621094 C 12.433328 5.0866094 12.3075 5.0387031 12.179688 5.015625 z"/>
</svg>
