<?xml version="1.0"?>
<svg xmlns="http://www.w3.org/2000/svg" viewBox="0 0 50 50">
    <path d="M 22.5 3 C 20.014719 3 18 5.0147186 18 7.5 C 18 9.9852814 20.014719 12 22.5 12 C 24.985281 12 27 9.9852814 27 7.5 C 27 5.0147186 24.985281 3 22.5 3 z M 18.03125 12.71875 C 16.245359 12.840578 14.62025 14.014 14 15.8125 L 10.875 24.3125 C 9.997 26.7155 11.0535 29.39375 13.3125 30.59375 L 15.25 31.625 L 21.5 35.53125 L 20.375 44.15625 C 20.178 45.65625 21.32975 47 22.84375 47 C 24.07775 47 25.15175 46.095 25.34375 44.875 L 27 34.28125 C 27.174 33.17425 26.7165 32.07025 25.8125 31.40625 L 20.0625 27.1875 L 22.03125 20.875 L 25.71875 23.46875 C 26.32275 23.89575 27.09 23.958 27.75 23.625 L 30.15625 22.40625 L 35.53125 45.46875 C 35.942265 47.228409 37.739933 48.318788 39.5 47.90625 L 45.46875 46.53125 C 47.228409 46.120235 48.318788 44.322567 47.90625 42.5625 L 41.84375 16.53125 C 41.535489 15.211506 40.451582 14.283143 39.1875 14.0625 C 38.97682 14.025725 38.751703 13.995885 38.53125 14 C 38.310797 14.004115 38.095008 14.042185 37.875 14.09375 L 31.90625 15.46875 C 31.037951 15.671203 30.351903 16.249808 29.84375 16.96875 C 29.581572 17.339683 29.458925 17.701966 29.40625 18.03125 L 27.15625 19.125 L 21.5625 14.09375 C 21.0835 13.61175 20.52875 13.20475 19.84375 12.96875 C 19.24425 12.762 18.626547 12.678141 18.03125 12.71875 z M 38.59375 16 C 39.195317 15.980708 39.730638 16.381952 39.875 17 L 40.75 20.84375 L 39.09375 21.21875 L 39.53125 23.1875 L 41.21875 22.8125 L 42.15625 26.84375 L 40.53125 27.21875 L 41 29.15625 L 42.625 28.78125 L 43.59375 32.9375 L 41.875 33.34375 L 42.34375 35.28125 L 44.0625 34.90625 L 45 38.9375 L 43.34375 39.3125 L 43.78125 41.25 L 45.46875 40.875 L 45.96875 43.03125 C 46.134212 43.737183 45.706341 44.397515 45 44.5625 L 42.96875 45.03125 L 36.28125 16.53125 L 38.34375 16.03125 C 38.431992 16.010567 38.507812 16.002756 38.59375 16 z M 34.3125 16.96875 L 41 45.5 L 39.03125 45.96875 C 38.325317 46.134212 37.664985 45.706341 37.5 45 L 37 42.9375 L 38.5 42.59375 L 38.0625 40.625 L 36.5625 40.96875 L 35.59375 36.96875 L 37.0625 36.625 L 36.625 34.6875 L 35.15625 35.03125 L 34.1875 30.84375 L 35.71875 30.5 L 35.28125 28.53125 L 33.71875 28.875 L 32.75 24.84375 L 34.25 24.5 L 33.8125 22.5625 L 32.3125 22.90625 L 32.0625 21.875 L 32.09375 21.875 L 32 21.46875 L 33.09375 20.9375 C 34.12475 20.4175 34.54225 19.162 34.03125 18.125 C 33.84 17.7365 33.536654 17.451328 33.1875 17.25 L 34.3125 16.96875 z M 10.71875 31.15625 L 9.78125 37.5625 L 4.1875 41.21875 C 3.0485 41.96675 2.67875 43.46725 3.34375 44.65625 C 4.06575 45.94625 5.71175 46.403 6.96875 45.625 L 14.03125 41.25 C 14.48025 40.972 14.78325 40.514 14.90625 40 L 16.21875 34.59375 L 14.25 33.375 L 12.34375 32.375 C 11.72875 32.048 11.19575 31.62625 10.71875 31.15625 z"/>
</svg>
