<?xml version="1.0"?>
<svg xmlns="http://www.w3.org/2000/svg" width="26" height="26" viewBox="0 0 26 26">
    <path d="M 6 4 C 5.449 4 5 4.449 5 5 L 5 20 C 5 20.551 5.449 21 6 21 L 8 21 C 8.551 21 9 20.551 9 20 L 9 14 L 17 14 L 17 20 C 17 20.551 17.449 21 18 21 L 20 21 C 20.551 21 21 20.551 21 20 L 21 5 C 21 4.449 20.551 4 20 4 L 18 4 C 17.449 4 17 4.449 17 5 L 17 11 L 9 11 L 9 5 C 9 4.449 8.551 4 8 4 L 6 4 z M 3 6 C 2.449 6 2 6.449 2 7 L 2 11 L 1 11 C 0.449 11 0 11.449 0 12 L 0 13 C 0 13.551 0.449 14 1 14 L 2 14 L 2 18 C 2 18.551 2.449 19 3 19 L 4 19 L 4 6 L 3 6 z M 22 6 L 22 19 L 23 19 C 23.551 19 24 18.551 24 18 L 24 14 L 25 14 C 25.551 14 26 13.551 26 13 L 26 12 C 26 11.449 25.551 11 25 11 L 24 11 L 24 7 C 24 6.449 23.551 6 23 6 L 22 6 z"/>
</svg>
