<?xml version="1.0" encoding="iso-8859-1"?>
<!-- Generator: Adobe Illustrator 16.0.0, SVG Export Plug-In . SVG Version: 6.00 Build 0)  -->
<!DOCTYPE svg PUBLIC "-//W3C//DTD SVG 1.1//EN" "http://www.w3.org/Graphics/SVG/1.1/DTD/svg11.dtd">
<svg version="1.1" id="Capa_1" xmlns="http://www.w3.org/2000/svg" xmlns:xlink="http://www.w3.org/1999/xlink" x="0px" y="0px"
	 width="542.59px" height="542.59px" viewBox="0 0 542.59 542.59" style="enable-background:new 0 0 542.59 542.59;"
	 xml:space="preserve">
<g>
	<g>
		<path d="M253.851,124.664c0-22.109-18.178-40.039-40.631-40.039c-22.424,0-40.603,17.92-40.603,40.039
			c0,22.232,18.178,40.22,40.603,40.22C235.634,164.883,253.851,146.896,253.851,124.664z"/>
		<path d="M419.321,163.87c-1.588-8.587-8.635-13.521-9.056-13.895L187.554,3.191c-8.816-5.805-20.827-3.471-26.833,5.221
			l-11.274,16.352c-4.198,6.407-2.362,14.736,3.959,18.886c6.359,4.208,13.33,1.042,17.423-5.374l8.597-21.181l199.608,131.972
			l-158.767,28.668c-11.284,1.817-19.393,13.101-16.878,24.078l34.54,133.655l-111.7,167.593
			c-6.742,11.437-2.668,26.182,8.903,32.704c11.695,6.646,26.431,2.562,33.163-8.865c0,0,116.567-175.271,117.007-176.466
			l6.072,24.489l-17.604,139.823c-2.171,13.015,6.761,25.302,20.005,27.502c13.205,2.218,25.675-6.627,27.922-19.642l18.055-143.505
			c0.573-3.461-0.144-11.073-0.976-14.344l-39.79-158.422l103.667-18.666C413.766,185.71,421.233,175.039,419.321,163.87z"/>
	</g>
</g>
<g>
</g>
<g>
</g>
<g>
</g>
<g>
</g>
<g>
</g>
<g>
</g>
<g>
</g>
<g>
</g>
<g>
</g>
<g>
</g>
<g>
</g>
<g>
</g>
<g>
</g>
<g>
</g>
<g>
</g>
</svg>
