<?xml version="1.0" encoding="UTF-8" standalone="no"?>
<!-- Created with Inkscape (http://www.inkscape.org/) -->

<svg
   xmlns:dc="http://purl.org/dc/elements/1.1/"
   xmlns:cc="http://creativecommons.org/ns#"
   xmlns:rdf="http://www.w3.org/1999/02/22-rdf-syntax-ns#"
   xmlns:svg="http://www.w3.org/2000/svg"
   xmlns="http://www.w3.org/2000/svg"
   xmlns:sodipodi="http://sodipodi.sourceforge.net/DTD/sodipodi-0.dtd"
   xmlns:inkscape="http://www.inkscape.org/namespaces/inkscape"
   id="svg2"
   version="1.1"
   inkscape:version="0.47 r22583"
   width="300"
   height="300"
   sodipodi:docname="Cycling (road) pictogram (Paralympics).png">
  <metadata
     id="metadata8">
    <rdf:RDF>
      <cc:Work
         rdf:about="">
        <dc:format>image/svg+xml</dc:format>
        <dc:type
           rdf:resource="http://purl.org/dc/dcmitype/StillImage" />
        <dc:title></dc:title>
      </cc:Work>
    </rdf:RDF>
  </metadata>
  <defs
     id="defs6">
    <inkscape:perspective
       sodipodi:type="inkscape:persp3d"
       inkscape:vp_x="0 : 0.5 : 1"
       inkscape:vp_y="0 : 1000 : 0"
       inkscape:vp_z="1 : 0.5 : 1"
       inkscape:persp3d-origin="0.5 : 0.33333333 : 1"
       id="perspective10" />
  </defs>
  <sodipodi:namedview
     pagecolor="#ffffff"
     bordercolor="#666666"
     borderopacity="1"
     objecttolerance="10"
     gridtolerance="10"
     guidetolerance="10"
     inkscape:pageopacity="0"
     inkscape:pageshadow="2"
     inkscape:window-width="640"
     inkscape:window-height="502"
     id="namedview4"
     showgrid="false"
     inkscape:zoom="0.78666667"
     inkscape:cx="150"
     inkscape:cy="150"
     inkscape:window-x="0"
     inkscape:window-y="0"
     inkscape:window-maximized="0"
     inkscape:current-layer="svg2" />
  <path
     style="fill:#000000"
     d="M 19.382679,251.11178 C 14.592774,249.875 7.8981045,246.38113 3.75,242.95327 0.23533749,240.04887 0,239.50438 0,234.27716 l 0,-5.57724 2.931632,4.047 c 7.570006,10.45009 18.286431,14.48533 31.276077,11.77691 3.855869,-0.80397 9.099036,-2.67858 11.651481,-4.16579 C 51.144978,237.27822 62,226.65108 62,224.55608 c 0,-0.76613 -1.6875,-2.41837 -3.75,-3.67165 -4.408348,-2.67873 -22.207461,-15.98475 -24.650892,-18.42818 -2.036263,-2.03626 -1.696693,-3.50608 1.044253,-4.52002 1.535979,-0.5682 3.624475,0.35332 8.448501,3.72779 C 49.322229,206.02224 64.585284,214 66.693071,214 c 1.914989,0 3.8079,-9.38334 3.732023,-18.5 -0.129419,-15.54984 -6.235105,-26.31268 -18.283587,-32.22953 -16.512573,-8.1091 -38.890142,2.27596 -50.0226926,23.21472 L 0,190.47038 l 0,-6.84809 0,-6.8481 7.3865432,-7.38654 C 15.61873,161.15546 23.55058,156.76089 33.536981,154.89923 c 16.956583,-3.16104 34.02735,6.85736 40.480696,23.7571 3.225682,8.44727 3.755492,22.60245 1.182509,31.59367 -1.062392,3.7125 -1.773848,6.75 -1.581014,6.75 0.192834,0 4.252954,1.13086 9.022489,2.51301 25.239559,7.31414 59.380089,11.41644 95.858339,11.51826 11,0.0307 21.95656,0.43387 24.34792,0.89591 12.98486,2.50886 7.02845,12.00483 -10.37318,16.53738 -17.31634,4.51034 -69.81824,-1.85954 -100.388929,-12.17984 -5.727804,-1.93363 -13.377804,-4.84726 -17,-6.47472 L 68.5,226.85098 l -2.475732,3.32451 c -6.287735,8.44342 -15.963205,15.90001 -24.545443,18.91642 -6.148155,2.1609 -17.522929,3.2007 -22.096146,2.01987 z m 231.000001,-0.0607 c -13.45575,-3.21231 -24.57715,-14.96577 -27.9227,-29.50962 -1.09171,-4.74587 -1.33335,-5.02807 -4.12149,-4.81319 -1.62899,0.12555 -6.75905,1.36697 -11.40014,2.75871 -27.99102,8.39379 -32.96518,9.73285 -37.94161,10.21399 -9.11777,0.88153 -15.4877,-3.26267 -17.63075,-11.47037 -0.82407,-3.15611 1.35865,-7.89833 4.74537,-10.30988 4.70482,-3.35013 46.01767,-10.86348 59.94777,-10.90239 l 6.55912,-0.0183 1.61793,-5.05938 c 1.19437,-3.73491 1.30979,-5.16793 0.44087,-5.47406 -0.64738,-0.22808 -8.59212,-2.18291 -17.65499,-4.34408 l -16.47794,-3.92939 -3.30686,2.90345 c -3.8129,3.34778 -8.56423,3.81998 -13.37985,1.32972 -3.50986,-1.81502 -3.20993,-1.9658 -5.1195,2.57374 -2.07557,4.93419 -9.93212,15.28373 -13.89776,18.30772 -1.83708,1.40087 -6.26515,4.01373 -9.84015,5.80636 -11.44473,5.73879 -27.32043,5.14147 -42.56774,-1.60162 C 91.371213,202.62074 86.825631,197.08598 88.648677,190.72939 90.71175,183.53588 99.465108,183.3042 114,190.0584 c 9.31969,4.33076 9.69929,4.4148 20,4.42807 9.71094,0.0125 10.98846,-0.22065 17,-3.10275 3.575,-1.71396 9.12601,-5.53896 12.33558,-8.5 5.39741,-4.97948 5.75879,-5.58268 4.81285,-8.03352 -2.14766,-5.56436 1.9246,-12.42567 8.7265,-14.70321 2.81375,-0.94215 4.08819,-0.81454 7.66448,0.76742 4.25019,1.88006 6.11214,4.13595 7.40562,8.97245 0.62215,2.32628 1.94071,2.81198 18.61228,6.85583 l 17.94269,4.35218 1.98361,-2.79743 c 1.09098,-1.53859 5.02105,-5.8551 8.73348,-9.59225 7.66354,-7.71455 15.81173,-12.10562 25.69351,-13.84626 11.39718,-2.00758 24.30152,2.20594 31.64295,10.33203 3.21431,3.55785 3.44579,4.26926 3.43668,10.56192 l -0.01,6.74712 -2.33331,-5 c -2.73584,-5.86256 -9.02059,-11.86731 -15.52475,-14.83306 -12.91865,-5.89062 -33.3305,1.31269 -43.68305,15.41568 -3.02353,4.11888 -3.4774,5.2832 -2.34438,6.01416 0.77277,0.49854 8.70739,4.82976 17.6325,9.62493 8.92511,4.79517 16.49015,9.40301 16.81119,10.23964 0.33161,0.86415 -0.26179,2.20579 -1.3739,3.10632 -1.85197,1.49963 -1.49096,1.70756 6.68881,3.85261 4.75554,1.24709 11.30968,3.34945 14.56476,4.67192 3.25507,1.32246 6.18007,2.14793 6.5,1.83437 0.31992,-0.31356 1.10993,-2.00031 1.75559,-3.74834 1.08113,-2.92702 1.17994,-2.57852 1.25,4.40898 0.0732,7.30232 -0.0736,7.79631 -3.91166,13.15602 -4.3381,6.05809 -14.05622,13.9568 -20.70014,16.82471 -7.77645,3.35676 -18.15978,4.59927 -24.92944,2.98313 z m 19.24823,-7.61201 c 6.00212,-1.66777 15.68183,-8.47382 19.9619,-14.03574 3.36535,-4.37325 6.40719,-9.05819 6.40719,-9.86814 0,-0.29435 -5.0625,-0.56716 -11.25,-0.60625 -13.03078,-0.0823 -23.558,-0.98612 -39.94527,-3.42946 -6.4324,-0.95907 -12.89888,-1.44167 -14.36995,-1.07246 -2.51205,0.63049 -2.63425,0.92413 -2.00973,4.82967 2.54882,15.93942 17.21533,27.86808 32.07495,26.0874 2.2,-0.26363 6.30891,-1.12089 9.13091,-1.90502 z m -3.79702,-35.9385 c -0.81848,-0.81849 -32.16089,-17.62238 -33.23629,-17.81928 -1.00399,-0.18383 -3.99183,7.25782 -3.2228,8.02685 0.45064,0.45064 34.52099,10.11758 36.04187,10.22632 0.50416,0.036 0.69192,-0.1592 0.41722,-0.43389 z m -80.20346,-27.85909 2.74196,-2.35854 -4.67425,-0.70095 c -5.04846,-0.75706 -7.93241,-2.80792 -7.07833,-5.0336 0.86072,-2.243 2.86738,-2.50263 8.28888,-1.07247 5.76287,1.52022 6.24259,0.92425 3.23109,-4.01408 -2.59681,-4.25831 -7.9262,-5.8144 -12.34864,-3.6056 C 170.44176,165.52799 167.23825,175 171.68402,175 c 0.98133,0 1.25128,0.6285 0.83428,1.94234 -0.45805,1.44319 0.10284,2.33235 2.18261,3.45997 4.04828,2.1949 7.79662,1.93397 10.92952,-0.76084 z M 84.885071,177.62038 C 78.864396,175.46883 74.891853,171.96384 72.394034,166.5995 65.397752,151.5742 75.726097,136 92.686705,136 c 6.286148,0 14.255975,4.60261 17.676565,10.2083 5.69872,9.33909 4.29253,19.16718 -3.81115,26.63689 -6.34073,5.84468 -13.969516,7.52599 -21.667049,4.77519 z"
     id="path2818" />
</svg>
