<?xml version="1.0"?>
<svg xmlns="http://www.w3.org/2000/svg" viewBox="0 0 24 24">
    <path d="M 17 1.0097656 C 17 3.5917656 17.685547 5.0390625 17.685547 5.0390625 L 17.466797 6.125 L 14.837891 7 L 13.732422 7 L 14.970703 8.9960938 L 14.978516 9 L 15 9 C 15.107 9 15.214406 8.9832187 15.316406 8.9492188 L 17.015625 8.3828125 L 16.544922 10.728516 L 14.291016 9.796875 L 12.849609 7.4824219 A 1.0001 1.0001 0 0 0 12.019531 7 A 1.0001 1.0001 0 0 0 12 7 L 11 7.0019531 C 10.22 7.0139531 9.93775 7.1056719 9.71875 7.7636719 L 8 13 L 2.7695312 13 C 1.7905312 13.005 1 13.788578 1 14.767578 L 1 14.775391 C 1 15.513391 1.500625 16.067547 2.140625 16.435547 C 3.850625 17.418547 6.9923438 18.619828 8.7773438 18.923828 C 9.0383438 18.970828 9.289 19 9.5 19 C 10.2 19 11.3 18.8 12 18 C 12.7 18.8 13.8 19 14.5 19 C 14.618 19 14.759484 18.983703 14.896484 18.970703 L 16.089844 13 L 11.490234 13 L 12.324219 10.421875 L 12.763672 11.126953 A 1.0001 1.0001 0 0 0 13.230469 11.523438 L 16.144531 12.728516 L 16.089844 13 L 16.90625 13 A 1.0001 1.0001 0 0 0 17.109375 13.001953 L 15.970703 18.697266 C 17.452703 18.381266 19.886375 17.569547 21.859375 16.435547 C 22.499375 16.067547 23 15.513391 23 14.775391 L 23 14.767578 C 23 13.788578 22.209469 13.005 21.230469 13 L 17.117188 13 A 1.0001 1.0001 0 0 0 17.484375 11.125 L 18.105469 8.0195312 L 18.316406 7.9492188 C 18.840406 7.7742188 19.122266 7.2075938 18.947266 6.6835938 C 18.865637 6.4382397 18.693711 6.2523371 18.484375 6.1347656 L 18.667969 5.2148438 C 20.503724 3.9465174 20.978516 1.0097656 20.978516 1.0097656 L 17 1.0097656 z M 12 2 A 2 2 0 0 0 10 4 A 2 2 0 0 0 12 6 A 2 2 0 0 0 14 4 A 2 2 0 0 0 12 2 z M 2 19 L 2 21 C 2.7 21.8 3.8 22 4.5 22 C 5.2 22 6.3 21.8 7 21 C 7.7 21.8 8.8 22 9.5 22 C 10.2 22 11.3 21.8 12 21 C 12.31 21.354 12.701609 21.576469 13.099609 21.730469 C 13.327609 21.077469 13.631219 20.474984 13.949219 19.958984 C 13.303219 19.869984 12.536 19.612 12 19 C 11.3 19.8 10.2 20 9.5 20 C 8.8 20 7.7 19.8 7 19 C 6.3 19.8 5.2 20 4.5 20 C 3.8 20 2.7 19.8 2 19 z M 17 19 C 16.794 19.236 16.549922 19.407828 16.294922 19.548828 C 16.656922 20.016828 16.971 21.033 17 21 C 17.7 21.8 18.8 22 19.5 22 C 20.2 22 21.3 21.8 22 21 L 22 19 C 21.3 19.8 20.2 20 19.5 20 C 18.8 20 17.7 19.8 17 19 z"/>
</svg>
