<?xml version="1.0" encoding="utf-8"?>
<!-- Generated by IcoMoon.io -->
<!DOCTYPE svg PUBLIC "-//W3C//DTD SVG 1.1//EN" "http://www.w3.org/Graphics/SVG/1.1/DTD/svg11.dtd">
<svg version="1.1" xmlns="http://www.w3.org/2000/svg" xmlns:xlink="http://www.w3.org/1999/xlink" width="512" height="512" viewBox="0 0 512 512">
<g>
</g>
	<path d="M7029.965 37002.681c0 15.394-12.48 27.874-27.873 27.874-15.394 0-27.873-12.48-27.873-27.874 0-15.394 12.48-27.874 27.873-27.874 15.394 0 27.873 12.48 27.873 27.874z" fill="#000000" />
	<path d="M6832.282 37085.624l-1.218 0.215-1.177 0.563z" fill="#000000" />
	<path d="M6870.681 37069.957l-0.051-0.502c-0.113-0.942-0.072-1.863-0.041-2.775l-39.526 19.149 1.218-0.215-2.386 0.778 1.167-0.563-20.89 3.645 30.966 5.56 34.498-12.165-4.792-12.462-0.164-0.45z" fill="#000000" />
	<path d="M6844.068 37101.056l-2.233-0.399-2.099 0.707z" fill="#000000" />
	<path d="M6877.44 37088.921l-35.605 11.735 2.233 0.399-4.332 0.297 2.099-0.696-72.212-12.861-2.663 1.382-26.276 23.327 29.757-6.533-0.973-0.185 5.611-0.84-4.639 1.024 72.704 12.944 2.15-0.696 47.626-15.719c-3.123-0.717-6.073-2.038-8.663-4.065-3.175-2.519-5.448-5.817-6.82-9.513z" fill="#000000" />
	<path d="M6769.48 37105.797l0.973 0.185 4.639-1.024z" fill="#000000" />
	<path d="M6878.535 37067.366c0 0.297-0.113 0.573-0.092 0.912l4.598 11.981 1.813-0.645-6.318-12.247z" fill="#000000" />
	<path d="M6885.079 37086.402c0.87 2.253 2.119 4.321 4.065 5.857 2.898 2.304 6.502 3.318 10.168 2.898 0 0 2.498-0.297 6.38-0.738l-4.403-13.363-16.21 5.346z" fill="#000000" />
	<path d="M6997.391 37038.622h-0.092l0.020 0.082z" fill="#000000" />
	<path d="M6876.16 37083.904c0.041 0.256 0.133 0.522 0.174 0.778l0.072 0.185-0.246-0.963z" fill="#000000" />
	<path d="M6978.887 37030.635l0.123 0.020 0.409-0.103z" fill="#000000" />
	<path d="M6878.434 37068.575c-0.020-0.113 0.020-0.215 0.020-0.287l-0.246-0.676 0.225 0.963z" fill="#000000" />
	<path d="M7061.985 37029.868l-63.815 12.585-24.167 5.264c5.427 6.082 18.473 16.589 31.181 29.122l60.877-32.082 184.709 7.004 2.078-11.315-190.864-10.578z" fill="#000000" />
	<path d="M7081.626 37082.696l-6.451-4.188-5.52 5.468z" fill="#000000" />
	<path d="M7102.331 37051.556l-27.157 26.952 6.451 4.188-11.971 1.28 5.52-5.468-27.648-17.838-19.671 10.086 49.89 32.226 5.499-5.478 43.12-44.964z" fill="#000000" />
	<path d="M7029.637 37089.065l-5.673-4.649-6.492 5.223z" fill="#000000" />
	<path d="M7066.736 37050.204l-42.773 34.212 5.673 4.649-12.165 0.573 6.492-5.223-8.766-7.137-10.834 5.56-3.4-2.704-34.97-33.26-8.468 11.796 66.959 50.463 5.878-5.315 58.675-52.9z" fill="#000000" />
	<path d="M6970.43 37040.702l-3.789 5.274 7.711-2.079z" fill="#000000" />
	<path d="M6965.412 37046.302l0.583 0.573 0.645-0.901z" fill="#000000" />
	<path d="M6966.641 37045.975l7.711-2.079c0 0 16.773-3.881 18.821-4.423-2.222-5.683-7.824-9.503-14.162-8.817l-88.412 22.518c-7.178 0.84-12.267 7.096-12.052 14.192l6.318 12.247-1.813 0.645 0.686 1.792 0.185 0.45 0.051 0.502c0.133 1.198 0.666 2.304 1.106 3.399l16.22-5.335 4.403 13.363c19.763-2.304 79.544-9.277 79.565-9.277 2.058-0.215 3.953-1.116 5.703-2.283l-12.913-24.535-12.052-11.448 0.635-0.912z" fill="#000000" />
	<path d="M276.439 204.688c0 21.074-17.080 38.154-38.154 38.154-21.053 0-38.134-17.081-38.134-38.154 0-21.043 17.081-38.124 38.134-38.124 21.074 0 38.154 17.081 38.154 38.124z" fill="#000000" />
	<path d="M325.765 401.316c0-12.524-9.421-22.681-21.063-22.681h-125.235c-11.623 0-21.074 10.158-21.074 22.682v0c0 12.524 9.452 22.692 21.074 22.692h125.235c11.643 0 21.063-10.168 21.063-22.692v0z" fill="#000000" />
	<path d="M93.43 432.784c0 0 60.846-47.719 138.885-18.442 0 0 53.534-26.481 125.666-4.055 0 0 25.334 12.022 52.572-15.596 0 0 0.041 44.493-126.976 31.509 0 0-51.262 2.786-57.774 19.026 0.010 0-63.078-34.642-132.373-12.442z" fill="#000000" />
	<path d="M270.827 357.11c-0.010 9.748-10.803 17.592-24.002 17.51l-16.825-0.215c-13.2-0.103-23.88-8.069-23.798-17.838l-9.287-85.852c0.082-9.769 10.844-17.593 24.074-17.511l36.506 0.256c13.209 0.082 23.87 8.059 23.788 17.797l-10.455 85.852z" fill="#000000" />
	<path d="M28.778 422.067l427.255-319.294 5.854 7.833-427.255 319.294-5.854-7.833z" fill="#000000" />
	<path d="M407.962 139.51c0 0 36.844-115.21 90.594-55.614 0 0 30.003 47.902-57.907 65.003l-34.314-1.28 1.628-8.11z" fill="#000000" />
	<path d="M43.684 407.818c0 0-28.047 2.898-35.175 12.841 0 0 28.662 5.058 31.918 18.074 0 0 11.623 8.765 14.551-2.171 2.949-10.926-3.175-20.613-3.175-20.613l-5.602-6.81z" fill="#000000" />
	<path d="M219.085 253.102l-77.66 24.955-1.536 4.864-7.721 69.366 20.756-12.964 5.786-50.524-6.39 6.462 72.775-23.399z" fill="#000000" />
	<path d="M260.618 270.981l104.182 28.416-2.386-15.104-13.046-90.082-19.425 11.899 12.985 81.305 12.308-11.079-89.436-24.381z" fill="#000000" />
</svg>
