<?xml version="1.0" encoding="utf-8"?>
<!-- Svg Vector Icons : http://www.onlinewebfonts.com/icon -->
<!DOCTYPE svg PUBLIC "-//W3C//DTD SVG 1.1//EN" "http://www.w3.org/Graphics/SVG/1.1/DTD/svg11.dtd">
<svg version="1.1" xmlns="http://www.w3.org/2000/svg" xmlns:xlink="http://www.w3.org/1999/xlink" x="0px" y="0px" viewBox="0 0 1000 1000" enable-background="new 0 0 1000 1000" xml:space="preserve">
<metadata> Svg Vector Icons : http://www.onlinewebfonts.com/icon </metadata>
<g><path d="M790.1,390.9c26.2-52.8,42.5-115,42.5-162.7C832.5,107.9,734.6,10,614.3,10H385.7c-120.3,0-218.2,97.9-218.2,218.2c0,47.7,16.3,109.9,42.5,162.7c-49.9,63-79.8,142.7-79.8,229.3C130.2,824.4,295.7,990,500,990c204.3,0,369.8-165.6,369.8-369.8C869.8,533.5,840,453.9,790.1,390.9z M385.7,120.9h228.7c59.3,0,107.3,48,107.3,107.3c0,22-6.6,53-17.9,83.3c-58.4-38.6-128.4-61.2-203.7-61.2c-75.3,0-145.3,22.6-203.7,61.2c-11.3-30.3-17.9-61.3-17.9-83.3C278.4,168.9,326.4,120.9,385.7,120.9z"/></g>
</svg>