<?xml version="1.0"?>
<svg xmlns="http://www.w3.org/2000/svg" version="1" viewBox="0 0 26 26" enable-background="new 0 0 26 26">
    <path style="text-indent:0;text-align:start;line-height:normal;text-transform:none;block-progression:tb;-inkscape-font-specification:Bitstream Vera Sans" d="M 10.4375 0.21875 A 0.750075 0.750075 0 0 0 10.3125 0.25 A 0.750075 0.750075 0 0 0 9.875 0.59375 L 7.875 3.6875 A 0.750075 0.750075 0 0 0 8.09375 4.71875 L 9.0625 5.375 C 8.5159849 6.2572818 7.6588015 7.7474485 7.5 7.90625 L 9.59375 7.90625 C 9.59375 7.90625 10.135153 7.1507149 10.625 6.4375 L 12.4375 7.65625 C 10.812207 8.7246762 10.398163 9 5.6875 9 C 3.5875 9 2.8 9.19375 2.5 10.09375 C 2.4 10.59375 2 12.7875 2 14.1875 C 2 15.61285 3.6408513 18.933065 7.40625 20.71875 C 6.9525225 21.009304 6.3900284 21.336902 6 21.59375 C 6.6 21.69375 7.2125 21.6875 7.8125 21.6875 C 12.0125 21.6875 15.29375 19.8125 19.09375 19.8125 L 19.59375 19.8125 C 21.69375 18.3125 24 16.4 24 15.5 C 24 14.6 23.7 14 22 14 C 20.205248 14 17.532909 15.054037 14.78125 16.4375 C 13.645066 15.649509 10.626831 13.59375 9.8125 13.59375 C 8.8125 13.59375 6.90625 14 6.90625 14 L 7.1875 11 C 7.1875 11 11.358705 11.187926 14.03125 8.71875 L 15.78125 9.90625 A 0.750075 0.750075 0 0 0 16.8125 9.71875 L 20.40625 4.53125 A 0.750075 0.750075 0 1 0 19.1875 3.6875 L 16 8.28125 L 14.875 7.53125 C 14.963912 7.0030064 14.449965 6.722675 13.875 6.84375 L 13.15625 6.34375 L 15.53125 2.8125 A 0.750075 0.750075 0 0 0 14.75 1.65625 A 0.750075 0.750075 0 0 0 14.28125 1.96875 L 11.9375 5.5 L 11.34375 5.09375 C 11.39172 4.8571753 11.41625 4.5705 11.09375 4.3125 C 10.805906 4.0822248 10.42781 4.1026426 10.09375 4.25 L 9.53125 3.875 L 11.125 1.40625 A 0.750075 0.750075 0 0 0 10.4375 0.21875 z M 4 4 C 2.6192881 4 1.5 5.1192881 1.5 6.5 C 1.5 7.8807119 2.6192881 9 4 9 C 5.3807119 9 6.5 7.8807119 6.5 6.5 C 6.5 5.1192881 5.3807119 4 4 4 z M 9.3125 15.59375 C 9.8499365 15.440197 11.712153 16.921435 12.5625 17.625 C 11.401087 18.268765 10.308144 18.914573 9.25 19.5625 C 8.1408125 19.001032 6.3024689 17.974021 6.09375 17 C 6.39375 16.3 8.7125 15.79375 9.3125 15.59375 z M 0.09375 21.40625 C 0.09375 21.40625 2.0125 25.90625 7.8125 25.90625 C 14.4125 25.90625 14.69375 23.90625 19.09375 23.90625 C 23.29375 23.90625 25.90625 24.40625 25.90625 24.40625 C 25.90625 24.40625 22.89375 21.8125 19.09375 21.8125 C 15.29375 21.8125 12.0125 23.6875 7.8125 23.6875 C 2.8125 23.6875 0.09375 21.40625 0.09375 21.40625 z" overflow="visible" enable-background="accumulate" font-family="Bitstream Vera Sans"/>
</svg>
