<?xml version="1.0"?>
<svg xmlns="http://www.w3.org/2000/svg" viewBox="0 0 50 50">
    <path d="M 25 3 A 6 6 0 0 0 19 9 A 6 6 0 0 0 25 15 A 6 6 0 0 0 31 9 A 6 6 0 0 0 25 3 z M 25 17 C 21.442 17 16.566406 18.029297 16.566406 18.029297 L 16.544922 18.046875 C 15.568922 18.196875 14.754172 18.812062 14.326172 19.664062 L 14.306641 19.679688 L 9.5996094 28.210938 L 9.6035156 28.214844 C 9.2295156 28.714844 9 29.328 9 30 C 9 31.657 10.343 33 12 33 C 12.27 33 12.526391 32.953719 12.775391 32.886719 L 12.783203 32.896484 L 17 31.896484 L 17 33.880859 C 17 35.246859 10.042969 39.503906 10.042969 39.503906 L 10.046875 39.515625 A 4 4 0 0 0 8 43 A 4 4 0 0 0 12 47 L 17.761719 47 C 17.281719 46.284 17 45.425 17 44.5 C 17 42.383 18.502266 40.529703 20.572266 40.095703 L 29.779297 38.025391 C 30.320297 37.904391 30.853609 38.24325 30.974609 38.78125 C 31.095609 39.32025 30.75675 39.855562 30.21875 39.976562 L 20.996094 42.050781 C 19.833094 42.294781 19 43.323 19 44.5 C 19 45.879 20.121 47 21.5 47 L 38 47 A 4 4 0 0 0 42 43 A 4 4 0 0 0 40 39.541016 L 40.003906 39.527344 C 40.003906 39.527344 33 35.074875 33 33.796875 L 33 31.896484 L 37.216797 32.896484 L 37.224609 32.886719 C 37.473609 32.953719 37.73 33 38 33 C 39.657 33 41 31.657 41 30 C 41 29.328 40.771437 28.713891 40.398438 28.212891 L 40.400391 28.210938 L 35.693359 19.679688 L 35.673828 19.664062 C 35.246828 18.812062 34.431078 18.196875 33.455078 18.046875 L 33.433594 18.029297 C 33.433594 18.029297 28.558 17 25 17 z M 24.998047 19 C 25.524047 19 26.732328 18.999422 27.861328 24.232422 L 33.316406 26.050781 C 33.840406 26.225781 34.122266 26.792406 33.947266 27.316406 C 33.808266 27.735406 33.419 28 33 28 C 32.896 28 32.788594 27.982266 32.683594 27.947266 L 26.683594 25.947266 C 26.343594 25.834266 26.089531 25.547313 26.019531 25.195312 C 25.743531 23.817312 25.337047 22.409172 24.998047 21.576172 C 24.660047 22.409172 24.257469 23.816312 23.980469 25.195312 C 23.910469 25.547313 23.656406 25.834266 23.316406 25.947266 L 17.316406 27.947266 C 16.788406 28.124266 16.225781 27.840406 16.050781 27.316406 C 15.875781 26.792406 16.159594 26.224781 16.683594 26.050781 L 22.136719 24.232422 C 23.264719 18.999422 24.472047 19 24.998047 19 z"/>
</svg>
