<svg version="1" viewBox="0 0 24 24" xml:space="preserve" xmlns="http://www.w3.org/2000/svg"><circle cx="14" cy="13" r="2"/><path d="M12.2 3.3L15.6 2s.8 1.6 1 3c.2 1.1 0 2.4-.8 2.7-.9.3-1.6-.3-2.2-1.3-.7-1.2-1.4-3.1-1.4-3.1z"/><path fill="none" stroke="#000" stroke-miterlimit="10" d="M14.8 4.5l5.4 15.1"/><path d="M18.7 16.5l-2.2 1c-1 .5-2.2.4-3.2-.2-.8-.5-1.7-1.1-2.5-1.6-.9-.6-1.4-1.7-1.3-2.8.3-1.7 1.6-3.1 3.3-3.4l3.2-.7" fill="none" stroke="#000" stroke-miterlimit="10" stroke-width="2"/><path d="M2 19.4c1.4-.6 3.7-1.4 5.5-1.4 1.7 0 3.1.5 4.4 1.1 1.2.5 2.3.9 3.6.9 2 0 5.2-1.2 6.5-1.7v2.1c-1.7.6-4.4 1.5-6.5 1.5-1.7 0-3-.5-4.3-1.1-1.2-.3-2.4-.8-3.7-.8-1.8 0-4.4 1.1-5.5 1.6v-2.2z"/><path d="M7.5 17c1.5 0 4.9 1.1 6 1.5-.4-.9-1.7-1.6-1.7-1.6l-1.7-2-1.3-3L6.3 17h1.2z"/></svg>