<?xml version="1.0" ?><!DOCTYPE svg  PUBLIC '-//W3C//DTD SVG 1.0//EN'  'http://www.w3.org/TR/2001/REC-SVG-20010904/DTD/svg10.dtd'><svg enable-background="new 0 0 24 24" id="Layer_1" version="1.0" viewBox="0 0 24 24" xml:space="preserve" xmlns="http://www.w3.org/2000/svg" xmlns:xlink="http://www.w3.org/1999/xlink"><circle cx="14" cy="13" r="2"/><path d="M12.2,3.3L15.6,2c0,0,0.8,1.6,1,3c0.2,1.1,0,2.4-0.8,2.7c-0.9,0.3-1.6-0.3-2.2-1.3C12.9,5.2,12.2,3.3,12.2,3.3z"/><line fill="none" stroke="#000000" stroke-miterlimit="10" x1="14.8" x2="20.2" y1="4.5" y2="19.6"/><path d="M18.7,16.5l-2.2,1c-1,0.5-2.2,0.4-3.2-0.2  c-0.8-0.5-1.7-1.1-2.5-1.6c-0.9-0.6-1.4-1.7-1.3-2.8l0,0c0.3-1.7,1.6-3.1,3.3-3.4L16,8.8" fill="none" stroke="#000000" stroke-miterlimit="10" stroke-width="2"/><path d="M2,19.4C3.4,18.8,5.7,18,7.5,18c1.7,0,3.1,0.5,4.4,1.1c1.2,0.5,2.3,0.9,3.6,0.9c2,0,5.2-1.2,6.5-1.7v2.1  c-1.7,0.6-4.4,1.5-6.5,1.5c-1.7,0-3-0.5-4.3-1.1C10,20.5,8.8,20,7.5,20c-1.8,0-4.4,1.1-5.5,1.6V19.4z"/><g><path d="M7.5,17c1.5,0,4.9,1.1,6,1.5c-0.4-0.9-1.7-1.6-1.7-1.6l-1.7-2l-1.3-3l-2.5,5.1C6.7,17,7.1,17,7.5,17z"/></g></svg>