<?xml version="1.0"?>
<svg xmlns="http://www.w3.org/2000/svg" viewBox="0 0 50 50">
    <path style="text-indent:0;text-align:start;line-height:normal;text-transform:none;block-progression:tb;-inkscape-font-specification:Sans" d="M 29 3 C 26.790861 3 25 4.790861 25 7 C 25 9.209139 26.790861 11 29 11 C 31.209139 11 33 9.209139 33 7 C 33 4.790861 31.209139 3 29 3 z M 25.3125 13.21875 C 24.261047 13.189312 23.21225 13.52925 22.34375 14.15625 L 16.40625 18.40625 C 16.07425 18.64525 15.8225 18.989 15.6875 19.375 L 13.625 25.28125 C 13.42875 25.84375 13.531943 26.443848 13.84375 26.90625 L 2.21875 41.375 A 1.0004882 1.0004882 0 1 0 3.78125 42.625 L 15.625 27.875 A 1.0001 1.0001 0 0 0 15.78125 27.65625 C 16.344019 27.519756 16.840027 27.116293 17.0625 26.53125 L 18.59375 22.5 L 22.375 19.84375 L 20.375 27.125 C 19.953 28.653 20.4595 30.27925 21.6875 31.28125 L 28.96875 37.21875 L 31.0625 44.53125 C 31.111634 44.702731 31.193264 44.851917 31.28125 45 L 28.71875 45 C 28.372707 44.403104 27.739604 44 27 44 C 25.895431 44 25 44.895431 25 46 C 25 47.104569 25.895431 48 27 48 C 27.739604 48 28.372707 47.596896 28.71875 47 L 38.28125 47 C 38.627293 47.596896 39.260396 48 40 48 C 41.104569 48 42 47.104569 42 46 C 42 44.895431 41.104569 44 40 44 C 39.260396 44 38.627293 44.403104 38.28125 45 L 34.78125 45 C 35.054889 44.542127 35.15925 43.975437 35 43.40625 L 32.125 33.125 L 27.1875 27.125 L 29.75 19.625 C 30.656 16.955 29.07675 14.066 26.34375 13.375 C 25.9975 13.2875 25.662984 13.228563 25.3125 13.21875 z M 40.09375 17.9375 C 39.959666 17.950889 39.821125 17.958875 39.6875 18 L 33.6875 19.84375 L 32 18.15625 C 31.989 18.86125 31.856 19.571 31.625 20.25 L 30.8125 22.71875 L 32.3125 23.75 C 32.8135 24.094 33.45025 24.20625 34.03125 24.03125 L 40.375 22.09375 L 46.03125 46.21875 A 1.0001 1.0001 0 1 0 47.96875 45.78125 L 42.125 20.84375 C 42.335243 20.386873 42.390181 19.859922 42.21875 19.34375 C 41.91075 18.4145 41.032338 17.843779 40.09375 17.9375 z M 19.40625 31.75 L 18.34375 34.34375 L 13.3125 40.75 C 12.787223 41.416426 12.702337 42.274384 13 43 L 10.28125 42.3125 C 10.093524 41.658794 9.5895995 41.115272 8.875 40.9375 C 8.7410127 40.904168 8.601526 40.880577 8.46875 40.875 C 7.5393182 40.83596 6.670826 41.437089 6.4375 42.375 C 6.1708417 43.446899 6.8343517 44.545842 7.90625 44.8125 C 8.6233137 44.990885 9.3377494 44.747937 9.8125 44.25 L 19.09375 46.5625 C 19.290736 47.216206 19.816651 47.759728 20.53125 47.9375 C 21.603149 48.204158 22.670842 47.571898 22.9375 46.5 C 23.204158 45.428101 22.540649 44.329158 21.46875 44.0625 C 21.334763 44.029168 21.226526 44.005577 21.09375 44 C 20.512855 43.9756 19.955594 44.214182 19.5625 44.625 L 16.5 43.875 C 16.607721 43.786371 16.72025 43.67325 16.8125 43.5625 L 22.84375 36.34375 L 23.375 35.21875 L 20.4375 32.84375 C 20.0485 32.52675 19.69725 32.142 19.40625 31.75 z"/>
</svg>
