<?xml version="1.0" standalone="no"?>
<!DOCTYPE svg PUBLIC "-//W3C//DTD SVG 20010904//EN"
 "http://www.w3.org/TR/2001/REC-SVG-20010904/DTD/svg10.dtd">
<svg version="1.0" xmlns="http://www.w3.org/2000/svg"
 width="1280.000000pt" height="850.000000pt" viewBox="0 0 1280.000000 850.000000"
 preserveAspectRatio="xMidYMid meet">
<metadata>
Created by potrace 1.15, written by Peter Selinger 2001-2017
</metadata>
<g transform="translate(0.000000,850.000000) scale(0.100000,-0.100000)"
fill="#000000" stroke="none">
<path d="M4310 8494 c-161 -28 -241 -55 -348 -117 -182 -103 -324 -265 -401
-454 -55 -133 -66 -196 -65 -353 0 -127 4 -156 27 -233 100 -326 325 -552 645
-646 364 -108 804 56 1010 378 186 291 205 613 54 916 -122 245 -313 401 -587
480 -87 25 -269 41 -335 29z"/>
<path d="M10164 8490 c-186 -26 -383 -130 -525 -277 -149 -153 -232 -328 -260
-549 -19 -150 17 -335 94 -489 160 -321 473 -517 823 -516 224 1 430 76 602
221 168 141 285 370 322 631 9 62 8 94 -5 169 -71 408 -318 688 -699 790 -89
24 -259 33 -352 20z"/>
<path d="M10860 6359 c-47 -4 -151 -7 -231 -8 -80 -1 -215 -5 -300 -11 -85 -5
-235 -14 -334 -20 -99 -6 -232 -15 -295 -20 -63 -5 -176 -14 -250 -20 -74 -6
-178 -15 -230 -20 -52 -5 -149 -14 -215 -20 -66 -6 -163 -15 -215 -20 -52 -5
-142 -14 -200 -20 -58 -5 -199 -19 -315 -30 -476 -46 -734 -68 -1035 -90 -80
-5 -199 -15 -265 -20 -66 -5 -201 -15 -299 -21 -99 -6 -214 -17 -255 -25 -90
-17 -211 -54 -211 -66 0 -7 61 -27 216 -71 82 -24 150 -64 188 -109 31 -39
1201 -1562 1304 -1700 l43 -56 -145 -290 -145 -289 -636 -7 c-349 -4 -817 -4
-1038 0 l-402 6 -44 42 c-24 22 -95 110 -158 194 -240 321 -560 700 -763 902
-293 292 -617 502 -850 550 -79 16 -281 14 -385 -4 -334 -58 -596 -204 -880
-490 -107 -108 -310 -357 -354 -434 -9 -16 -11 -15 -25 3 -8 11 -293 375 -635
809 -341 435 -619 791 -618 793 3 3 88 -6 357 -37 177 -20 220 -25 445 -50
223 -25 274 -30 375 -40 58 -5 152 -15 210 -20 192 -19 539 -45 805 -60 94 -6
249 -15 345 -20 189 -11 383 -24 605 -40 77 -6 201 -15 275 -20 74 -5 239 -17
365 -26 271 -19 609 -15 717 10 239 53 411 247 412 462 0 63 -3 76 -34 124
-80 125 -199 206 -375 257 -155 44 -1071 14 -1980 -67 -66 -6 -172 -15 -235
-20 -63 -5 -162 -14 -220 -20 -58 -6 -154 -15 -215 -20 -60 -5 -157 -14 -215
-20 -428 -41 -947 -86 -1275 -110 -82 -6 -204 -15 -270 -20 -66 -6 -203 -15
-305 -21 -224 -12 -429 -51 -473 -89 -7 -6 146 -57 246 -81 48 -12 51 -15 220
-233 94 -121 431 -553 750 -959 318 -405 580 -743 583 -750 5 -15 -132 -306
-200 -425 -40 -68 -51 -81 -79 -86 -17 -3 -411 -9 -874 -12 l-843 -7 0 -122 0
-123 1301 -4 1301 -3 54 -57 c29 -32 81 -95 116 -140 62 -82 1147 -1466 1913
-2440 l398 -508 107 0 106 0 32 33 c18 18 32 36 32 40 0 8 -845 1090 -1824
2337 l-577 735 1148 6 c631 4 1904 9 2828 13 l1680 7 1219 -1586 1219 -1585
106 0 106 1 38 35 38 35 -433 562 c-238 309 -774 1005 -1191 1547 l-759 985
1329 6 c730 3 1595 7 1921 8 l592 1 0 130 0 130 -457 1 c-252 1 -541 4 -642 8
l-184 6 -145 190 c-615 805 -970 1170 -1351 1390 -180 104 -314 141 -506 139
-322 -3 -624 -121 -910 -354 -144 -118 -380 -376 -463 -507 -15 -24 -29 -43
-32 -43 -3 1 -124 157 -270 347 -146 191 -408 532 -583 758 -246 317 -314 411
-301 414 10 2 57 -2 104 -8 47 -6 164 -20 260 -31 96 -11 211 -25 255 -30 216
-26 732 -77 1000 -99 151 -13 367 -28 605 -41 279 -16 699 -44 1045 -70 482
-36 593 -42 765 -37 121 3 211 11 260 22 93 21 209 74 267 121 87 71 149 196
160 321 5 65 3 77 -22 129 -15 31 -53 82 -84 113 -146 146 -391 208 -711 180z"/>
</g>
</svg>
