<?xml version="1.0"?>
<svg xmlns="http://www.w3.org/2000/svg" viewBox="0 0 50 50">
    <path d="M 40 3 C 37.222 3 35 5.222 35 8 C 35 10.778 37.222 13 40 13 C 42.778 13 45 10.778 45 8 C 45 5.222 42.778 3 40 3 z M 22.378906 10 C 21.833906 10 21.292969 10.110172 20.792969 10.326172 L 14.341797 13.111328 L 14.341797 13.113281 A 2 2 0 0 0 13 15 A 2 2 0 0 0 15 17 A 2 2 0 0 0 15.929688 16.769531 L 22.210938 14 L 25.335938 14 L 19.173828 20.162109 L 19.173828 20.171875 A 4 4 0 0 0 18 23 A 4 4 0 0 0 19.771484 26.318359 L 26 31 L 26 39.5 A 2.5 2.5 0 0 0 26.501953 41 L 17.099609 41 C 16.299609 41 15.331997 40.74065 14.585938 40.326172 L 12.496094 39.130859 A 1.0001 1.0001 0 0 0 11.921875 38.994141 A 1.0001 1.0001 0 0 0 11.503906 40.869141 L 13.609375 42.070312 L 13.615234 42.074219 C 14.31588 42.463486 15.096698 42.730451 15.892578 42.875 C 15.34302 43.420079 15 44.17304 15 45 C 15 46.64501 16.35499 48 18 48 C 19.64501 48 21 46.64501 21 45 C 21 44.231397 20.69587 43.533349 20.212891 43 L 31.787109 43 C 31.30413 43.533349 31 44.231397 31 45 C 31 46.64501 32.35499 48 34 48 C 35.64501 48 37 46.64501 37 45 C 37 44.175536 36.659933 43.423594 36.113281 42.878906 C 36.92799 42.732809 37.692664 42.458719 38.384766 42.074219 L 38.390625 42.070312 L 40.496094 40.869141 A 1.0007574 1.0007574 0 1 0 39.503906 39.130859 L 37.414062 40.326172 C 36.640473 40.755915 35.818572 41 34.900391 41 L 30.496094 41 A 2.5 2.5 0 0 0 31 39.5 L 31 29.5 A 2.5 2.5 0 0 0 29.798828 27.367188 L 29.794922 27.361328 C 29.794922 27.361328 27.500391 25.7 25.900391 24.5 L 33.900391 16.300781 C 35.300391 14.900781 35.300391 12.499609 33.900391 11.099609 C 33.200391 10.299609 32.2 10 31 10 L 22.378906 10 z M 34.144531 19 L 30.144531 23 L 39 23 C 40.1 23 41 22.1 41 21 C 41 19.9 40.1 19 39 19 L 34.144531 19 z M 16.351562 24.972656 L 12.400391 29 L 6.6601562 29 C 5.1951563 29 3.9148594 30.202062 4.0058594 31.664062 C 4.0878594 32.985062 5.155 34 6.5 34 L 13.755859 34 C 14.550859 34 15.313953 33.683094 15.876953 33.121094 L 20.058594 28.943359 L 17.544922 26.994141 C 17.009922 26.402141 16.613563 25.712656 16.351562 24.972656 z M 18 44 C 18.564129 44 19 44.435871 19 45 C 19 45.564129 18.564129 46 18 46 C 17.435871 46 17 45.564129 17 45 C 17 44.435871 17.435871 44 18 44 z M 34 44 C 34.564129 44 35 44.435871 35 45 C 35 45.564129 34.564129 46 34 46 C 33.435871 46 33 45.564129 33 45 C 33 44.435871 33.435871 44 34 44 z"/>
</svg>
