<?xml version="1.0" encoding="utf-8"?>
<!-- Svg Vector Icons : http://www.onlinewebfonts.com/icon -->
<!DOCTYPE svg PUBLIC "-//W3C//DTD SVG 1.1//EN" "http://www.w3.org/Graphics/SVG/1.1/DTD/svg11.dtd">
<svg version="1.1" xmlns="http://www.w3.org/2000/svg" xmlns:xlink="http://www.w3.org/1999/xlink" x="0px" y="0px" viewBox="0 0 1000 1000" enable-background="new 0 0 1000 1000" xml:space="preserve">
<metadata> Svg Vector Icons : http://www.onlinewebfonts.com/icon </metadata>
<g><g><g><g><path d="M696.4,167.4c21.9,0,40.5-7.6,55.8-22.9c15.3-15.3,22.9-33.9,22.9-55.8s-7.6-40.5-22.9-55.8C736.9,17.6,718.3,10,696.4,10c-21.9,0-40.5,7.6-55.8,22.9c-15.3,15.3-22.9,33.9-22.9,55.8s7.6,40.5,22.9,55.8C655.9,159.7,674.5,167.4,696.4,167.4z"/><path d="M904.5,442.2c-5.3-12-11.3-17.9-17.9-17.9l-105.6-37.8l-49.8-159.3l-2-6c0-4-3.7-9-11-14.9c-7.3-6-16.9-11-28.9-14.9l-79.7-31.9l-10-2c-5.3-2.7-13.6-3.7-24.9-3c-11.3,0.7-21.6,4.3-30.9,11l-137.4,75.7l-4,2c-2.7,1.3-6.3,5-11,11c-4.6,6-9,13.6-12.9,22.9l-59.8,121.5l-2,6c-1.3,5.3-0.7,11.6,2,18.9c2.7,7.3,8.6,13.6,17.9,18.9l8,4c5.3,2.7,12,2.3,19.9-1c8-3.3,14.6-10.3,19.9-20.9l57.8-113.5L540,255l-69.7,187.2l-33.9,247L328.9,814.7l-227.1-4l-10,39.8l249,121.5c5.3,2.7,11.3,4.6,17.9,6c21.2,5.3,41.5,2,60.8-10c19.3-12,31.5-29.2,36.8-51.8c8-33.2-2-61.1-29.9-83.7l95.6-109.6c13.3-14.6,21.2-29.2,23.9-43.8l21.9-143.4l135.4,137.4v169.3l-203.2,43.8v39.8L769.1,988c5.3,1.3,11.3,2,17.9,2c22.6,0,41.8-8.3,57.8-24.9c15.9-16.6,23.9-36.2,23.9-58.8c0-13.3-7.6-27.2-22.9-41.8c-15.3-14.6-27.6-24.2-36.8-28.9c-9.3-4.6-17.3-8.3-23.9-11V639.4v-6c1.4-4,0.7-10-2-17.9c-2.7-8-6-16.6-10-25.9L645.6,456.2l43.8-119.5l25.9,81.7c4,13.3,12.6,21.9,25.9,25.9L862.7,492h8c5.3,1.3,11.6,0.3,18.9-3c7.3-3.3,12.9-9.6,16.9-18.9C909.2,459.5,908.5,450.2,904.5,442.2z M420.5,908.3c-2.7,12-9.3,21.2-19.9,27.9c-10.6,6.6-21.9,8.6-33.9,6c-2.7,0-4.6-0.7-6-2l-189.2-91.6l137.4,2c0,15.9,4.6,27.9,13.9,35.9c9.3,8,19.9,11.6,31.9,11c12-0.7,21.9-5.6,29.9-14.9l17.9-21.9C419.9,872.5,425.8,888.4,420.5,908.3z M743.2,914.3c12,0,21.9-4.3,29.9-12.9s12-18.9,12-30.9v-10c10.6,0,21.2,4.6,31.9,13.9c10.6,9.3,15.9,19.9,15.9,31.9c0,13.3-4.3,24.2-12.9,32.9c-8.6,8.6-19.6,12.9-32.9,12.9h-6l-203.2-45.8l125.5-27.9C707.4,902.4,720.6,914.3,743.2,914.3z"/></g></g></g><g></g><g></g><g></g><g></g><g></g><g></g><g></g><g></g><g></g><g></g><g></g><g></g><g></g><g></g><g></g></g>
</svg>