<?xml version="1.0" encoding="UTF-8" standalone="no"?>
<!-- Created with Inkscape (http://www.inkscape.org/) -->

<svg
   xmlns:dc="http://purl.org/dc/elements/1.1/"
   xmlns:cc="http://creativecommons.org/ns#"
   xmlns:rdf="http://www.w3.org/1999/02/22-rdf-syntax-ns#"
   xmlns:svg="http://www.w3.org/2000/svg"
   xmlns="http://www.w3.org/2000/svg"
   xmlns:sodipodi="http://sodipodi.sourceforge.net/DTD/sodipodi-0.dtd"
   xmlns:inkscape="http://www.inkscape.org/namespaces/inkscape"
   width="429.48782"
   height="540.58148"
   id="svg2"
   version="1.1"
   inkscape:version="0.91 r13725"
   sodipodi:docname="snowshoes.svg">
  <defs
     id="defs4" />
  <sodipodi:namedview
     id="base"
     pagecolor="#ffffff"
     bordercolor="#666666"
     borderopacity="1.0"
     inkscape:pageopacity="0.0"
     inkscape:pageshadow="2"
     inkscape:zoom="0.80332173"
     inkscape:cx="321.35942"
     inkscape:cy="56.705436"
     inkscape:document-units="px"
     inkscape:current-layer="layer1"
     showgrid="false"
     fit-margin-top="0.6"
     fit-margin-right="0.6"
     fit-margin-bottom="0.6"
     fit-margin-left="0.6"
     inkscape:window-width="1916"
     inkscape:window-height="1035"
     inkscape:window-x="4"
     inkscape:window-y="1"
     inkscape:window-maximized="1"
     showguides="true"
     inkscape:guide-bbox="true" />
  <metadata
     id="metadata7">
    <rdf:RDF>
      <cc:Work
         rdf:about="">
        <dc:format>image/svg+xml</dc:format>
        <dc:type
           rdf:resource="http://purl.org/dc/dcmitype/StillImage" />
        <dc:title></dc:title>
      </cc:Work>
    </rdf:RDF>
  </metadata>
  <g
     inkscape:label="Layer 1"
     inkscape:groupmode="layer"
     id="layer1"
     transform="translate(983.22261,375.19865)">
    <path
       inkscape:connector-curvature="0"
       style="fill:#ffffff;fill-rule:evenodd;stroke:none"
       d="m -689.36353,155.17649 c 0,4.205 3.41187,7.61625 7.61593,7.61625 l 149.94032,0 c 4.19875,0 7.61,-3.41125 7.61,-7.61625 l 0,-149.9400761 c 0,-4.199275 -3.41125,-7.609912 -7.61,-7.609912 l -149.94032,0 c -4.20406,0 -7.61593,3.410637 -7.61593,7.609912 l 0,149.9400761 z"
       id="path15" />
    <path
       inkscape:connector-curvature="0"
       style="fill:#ffffff;fill-rule:evenodd;stroke:none"
       d="m -606.74023,18.184414 c -34.21637,0 -61.98612,27.753875 -61.98612,61.984746 0,34.23225 27.76975,61.98575 61.98612,61.98575 34.21513,0 61.98438,-27.7535 61.98438,-61.98575 0,-34.230871 -27.76925,-61.984746 -61.98438,-61.984746 z"
       id="path19" />
    <path
       inkscape:connector-curvature="0"
       style="fill:#000000;fill-rule:evenodd;stroke:none"
       d="m -839.32253,-227.05832 0,98.86249 -72.71701,87.537012 -0.11264,83.294836 c -7.92089,3.008541 -15.43631,6.900493 -22.33413,11.572645 -7.15595,4.847809 -13.67012,10.536847 -19.29594,16.863186 -2.56466,2.946547 -4.96111,5.997237 -7.13292,9.190859 -2.27312,3.38819 -4.37691,6.870009 -6.18809,10.474853 -1.02427,2.043166 -1.84569,4.200119 -2.4414,6.39782 -0.69774,2.515418 -1.10255,5.103309 -1.21546,7.732269 -1.11416,8.94478 1.68782,17.97162 7.83101,25.0477 6.54765,7.54719 16.26937,12.26149 26.78947,12.93867 5.51303,0.40055 11.02593,0.3594 16.49397,-0.10172 5.0855,-0.43247 10.12615,-1.19142 15.05498,-2.33133 9.37146,-1.7667 18.42954,-4.61125 26.97949,-8.49262 7.95553,-3.59427 15.40404,-8.05201 22.17749,-13.26886 3.26282,-2.47442 6.50266,-4.94984 9.72049,-7.47574 3.0037,-2.33133 5.99693,-4.70369 8.99015,-7.11711 3.85847,-3.40925 7.67327,-6.859466 11.37503,-10.423312 3.7917,-3.594299 7.48198,-7.290594 11.07092,-11.029006 6.06482,-6.69538 11.84734,-13.596993 17.29355,-20.702475 5.27675,-6.912127 10.23896,-13.987156 14.88556,-21.25781 l 12.48681,26.104498 c -2.08537,1.262997 -4.13613,2.505962 -6.18692,3.840378 -1.9345,1.25351 -3.82511,2.557474 -5.71462,3.882465 -3.85964,2.443874 -7.56149,5.144341 -11.0271,8.061431 -3.2283,2.731014 -6.25491,5.607043 -9.10187,8.697705 -2.64411,2.690949 -5.02904,5.596529 -7.12248,8.688186 -2.44134,3.56375 -4.48872,7.34214 -6.10865,11.25505 -0.99083,2.34191 -1.76741,4.71318 -2.4425,7.11712 -0.66367,2.45439 -1.13606,4.89829 -1.49549,7.37268 -0.50697,8.99626 2.51976,17.83799 8.62948,24.9141 6.85182,7.97944 16.97787,13.05227 28.04989,14.01764 5.3079,0.29769 10.63081,0.21557 15.94212,-0.2053 5.12702,-0.43243 10.16186,-1.19136 15.16212,-2.31139 9.21709,-2.40278 18.21522,-5.67852 26.70646,-9.73553 8.15713,-3.89185 15.87643,-8.4821 23.07724,-13.69892 3.46795,-2.12529 6.82068,-4.41565 10.0121,-6.87007 2.8688,-2.22822 5.62238,-4.60064 8.27232,-7.07606 3.89421,-3.63536 7.73084,-7.37268 11.37155,-11.18251 3.62926,-3.7689 7.17781,-7.66185 10.56509,-11.64634 6.37129,-6.438817 12.32784,-13.226831 17.75439,-20.353372 5.35743,-7.044607 10.20792,-14.377256 14.53994,-21.96656 5.24224,-7.116027 10.99138,-13.945007 17.13224,-20.445913 7.05111,-7.434676 14.68973,-14.448737 22.80074,-20.91919 l 34.46037,-23.76259 -8.85992,-10.248743 -25.20867,17.8990463 c -9.13642,5.8530297 -18.63007,11.2550847 -28.4347,16.1122867 -8.82534,4.385106 -17.88115,8.339052 -27.17885,11.861869 -7.51195,2.28934 -15.11603,4.385107 -22.75468,6.284252 -7.24694,1.797212 -14.57452,3.419763 -21.94819,4.816267 -5.42652,0.359212 -10.83007,1.119972 -16.10683,2.259882 -4.68919,1.016855 -9.29773,2.351334 -13.77954,3.963402 l -23.15791,-47.19819322 33.45802,-24.15278378 -8.05343,-9.643016 -24.62113,17.221838 c -0.55306,0.461831 -1.1406,0.892742 -1.7743,1.323902 -0.62215,0.432405 -1.25581,0.831993 -1.92408,1.191485 l 0.0366,-223.964179 37.74395,34.57708 -21.91358,47.42331 c -4.91962,10.71142 0.63319,23.00335 12.3739,27.46105 11.52134,4.35355 24.77092,-0.50392 29.77115,-10.92705 l 33.67691,-73.26172 -81.32919,-74.98734 c -2.60381,-2.22831 -5.71459,-3.9529 -9.05578,-5.07284 -4.34356,-1.43751 -9.0212,-1.15043 -13.56062,-1.15043 l -67.58889,-0.10197 c -3.81473,0 -7.66285,0.31758 -11.33006,1.46801 -3.82628,1.19145 -7.38178,3.09166 -10.40728,5.54606 l -63.80637,76.38283 -49.19153,-0.0337 c -12.64582,-0.25657 -23.07613,8.91423 -23.35727,20.45641 -0.2811,11.74829 10.12618,21.3808 23.00935,21.30929 l 70.86089,0 49.4266,-58.30921 z m 42.96887,237.314981 c -7.24574,2.002231 -14.49161,3.922405 -21.81685,5.648103 -7.56032,1.797212 -15.20008,3.439702 -22.85144,4.918232 -2.79047,0.400459 -5.59127,0.863472 -8.33684,1.396504 -2.363,0.47278 -4.73641,1.006404 -7.09948,1.622614 l 0,-48.819719 56.90858,-67.911266 0,96.6342372 z m 168.39719,27.254021 -7.63865,8.770213 c -1.97015,2.023258 -3.77896,4.169479 -5.40349,6.438817 -1.76275,2.475416 -3.30664,5.063404 -4.64309,7.753358 -5.16161,7.302103 -10.59967,14.459283 -16.30272,21.391317 -5.74914,6.983422 -11.78636,13.740921 -18.07701,20.313303 -3.58314,4.42617 -7.52344,8.56417 -11.85549,12.37403 -4.68915,4.12852 -9.73553,7.87636 -15.12748,11.17306 l -71.41517,-39.352387 c 2.36773,-1.622551 4.77563,-3.204136 7.24123,-4.682666 2.14294,-1.252483 4.29747,-2.47442 6.50957,-3.624845 l 7.96121,15.670706 c 5.47268,10.855532 22.51276,18.475312 36.51119,12.827212 13.86018,-5.59752 20.19693,-20.374399 14.17126,-33.098557 l -7.52344,-15.650767 c 3.54859,-0.86229 7.13169,-1.683519 10.71486,-2.402814 3.46788,-0.719296 6.97038,-1.355538 10.48442,-1.941233 2.71903,-0.47194 5.39197,-0.965343 8.05343,-1.509045 2.61533,-0.462702 5.17308,-0.965375 7.74232,-1.469043 6.53264,-1.150425 12.99608,-2.587988 19.36744,-4.241055 6.4289,-1.663611 12.73107,-3.594329 18.95259,-5.751095 l 10.27702,-2.988602 z m -160.09374,58.299708 69.5475,38.57213 c -7.05112,4.3535 -14.57455,8.00985 -22.4897,10.8954 -8.30687,3.01912 -16.93638,5.21691 -25.76173,6.4693 -3.22599,0.24761 -6.45196,0.28867 -9.68947,0.11385 -3.3032,-0.19534 -6.61094,-0.62678 -9.84041,-1.26293 -6.37934,-1.79721 -11.82551,-5.64913 -15.24506,-10.86493 -3.10615,-4.70378 -4.41036,-10.2698 -3.69022,-15.74333 0.30319,-1.61204 0.6968,-3.23465 1.24888,-4.81624 0.59546,-1.69515 1.30424,-3.29668 2.1372,-4.88877 1.72126,-3.62485 3.53244,-7.24963 6.08675,-10.46434 1.15906,-1.42696 2.48633,-2.7625 3.79164,-4.087487 1.26043,-1.334478 2.55432,-2.628955 3.90462,-3.922404 z m -83.78907,18.17657 c -7.16627,4.38511 -14.85101,8.00999 -22.88482,10.81348 -8.04415,2.81403 -16.42711,4.78572 -24.93337,5.86363 -3.2283,0.28867 -6.49112,0.40056 -9.72052,0.28867 -3.71337,-0.14402 -7.37023,-0.54514 -10.99255,-1.18088 -5.74914,-1.69406 -10.67798,-5.21688 -13.87283,-9.88913 -3.45407,-5.07391 -4.6466,-11.19405 -3.34235,-17.04717 0.28205,-1.65419 0.70969,-3.307288 1.30537,-4.888841 0.5853,-1.550137 1.29384,-3.019055 2.17172,-4.456713 1.44019,-3.409217 3.38618,-6.675441 5.73766,-9.664043 2.12686,-2.710982 4.56826,-5.174795 7.2919,-7.404162 l 69.23979,37.565689 z m 121.35325,-452.77604 c 0,19.76872 -17.57002,35.80852 -39.22906,35.80852 -21.65894,0 -39.2336,-16.0398 -39.2336,-35.80852 0,-19.76872 17.57466,-35.80957 39.2336,-35.80957 21.65904,0 39.22906,16.04085 39.22906,35.80957 z m -37.56418,366.462085 c -1.85613,2.43336 -3.70185,4.846874 -5.55789,7.26014 -1.7328,2.361848 -3.46561,4.703757 -5.19842,7.003548 -4.88277,7.199141 -10.12618,14.193264 -15.68407,20.960157 -5.7157,6.973094 -11.769,13.730562 -18.15995,20.199895 -4.2422,3.891889 -8.57298,7.701815 -13.02946,11.399167 -4.64663,3.850892 -9.37149,7.578728 -14.21044,11.224598 l -70.43229,-38.798202 c 2.91369,-2.053711 5.8724,-4.025458 8.944,-5.853123 2.91489,-1.766665 5.90701,-3.419731 8.93362,-4.970801 l 0.0738,7.332649 c 0.1243,12.158434 13.6712,25.24224 27.76872,25.211756 15.13335,0.03391 27.40815,-11.2246 27.54293,-25.017157 l 0.14671,-26.001444 c 1.9356,-0.360083 3.85966,-0.719295 5.74917,-1.109458 1.90213,-0.328075 3.79164,-0.657052 5.63733,-1.016762 2.95868,-0.390349 5.87357,-0.892835 8.78739,-1.468017 2.64411,-0.503917 5.27676,-1.119971 7.90938,-1.756151 6.39091,-1.366051 12.75873,-2.885548 19.05983,-4.579674 6.30097,-1.674125 12.56748,-3.522817 18.75674,-5.494502 l 2.95868,5.473474 z"
       id="path23"
       sodipodi:nodetypes="cccccccccccccccccccccccccccccccccccccccccccccccccccccccccccccccccccccccccccccccccccccccccccccccccccccccccccccccccccccccccccccccccccccccccssssscccccccccccccccccccccc" />
  </g>
</svg>
