<?xml version="1.0"?>
<svg xmlns="http://www.w3.org/2000/svg" version="1" width="24" height="24" viewBox="0 0 24 24">
    <path d="M 15.5 0 C 14.119288 0 13 1.1192881 13 2.5 C 13 3.8807119 14.119288 5 15.5 5 C 16.880712 5 18 3.8807119 18 2.5 C 18 1.1192881 16.880712 0 15.5 0 z M 12.40625 5.21875 C 12.212173 5.2313503 12.06159 5.2443971 11.90625 5.28125 A 1.0001 1.0001 0 0 0 11.875 5.28125 A 1.0001 1.0001 0 0 0 11.34375 5.46875 L 7.625 7.96875 A 1.0001 1.0001 0 0 0 7.53125 8.0625 L 4.90625 10.46875 A 1.0059637 1.0059637 0 1 0 6.28125 11.9375 L 8.75 9.625 L 8.84375 9.5625 L 8.875 9.53125 L 11 8.125 L 8.53125 14.03125 L 7.375 16.21875 A 1.2648532 1.2648532 0 1 0 9.625 17.375 L 9.78125 17.0625 L 9.8125 17.09375 L 11.90625 14.09375 L 11.0625 17.59375 L 9.3125 22.375 A 1.2602122 1.2602122 0 1 0 11.6875 23.21875 L 14.96875 14.125 A 1.250125 1.250125 0 0 0 15.0625 13.71875 L 16.90625 8.40625 C 16.90625 8.40625 16.954996 8.278246 16.96875 8.25 L 18.8125 9.25 L 20.875 12.4375 A 1.0001 1.0001 0 1 0 22.53125 11.34375 L 20.34375 7.96875 A 1.0001 1.0001 0 0 0 19.96875 7.625 L 17.6875 6.40625 C 17.604167 6.3479167 17.490394 6.2777199 17.375 6.21875 A 1.0001 1.0001 0 0 0 17.21875 6.125 C 16.053906 5.5964844 13.796094 5.1285156 12.40625 5.21875 z M 4.5 19 C 3.1192881 19 2 20.119288 2 21.5 C 2 22.880712 3.1192881 24 4.5 24 C 5.8807119 24 7 22.880712 7 21.5 C 7 20.119288 5.8807119 19 4.5 19 z"/>
</svg>
