<?xml version="1.0"?>
<svg xmlns="http://www.w3.org/2000/svg" viewBox="0 0 50 50">
    <path style="line-height:normal;text-indent:0;text-align:start;text-decoration-line:none;text-decoration-style:solid;text-decoration-color:#000;text-transform:none;block-progression:tb;isolation:auto;mix-blend-mode:normal" d="M 41.044922 1.9882812 A 1.0001 1.0001 0 0 0 40.148438 2.4765625 L 38.332031 5.4277344 L 30.662109 8.1835938 A 1.0001 1.0001 0 0 0 30.019531 9.3222656 L 32.826172 23.242188 C 29.577159 23.964112 26.914306 26.264237 25.705078 29.304688 A 1.0002917 1.0002917 0 0 0 25.689453 30 L 15.009766 30 A 1.0001 1.0001 0 0 0 14.955078 29.705078 L 11.044922 17 L 13.427734 17 C 14.296734 17 15 16.296734 15 15.427734 C 15 14.618734 14.384125 13.939328 13.578125 13.861328 L 7.0976562 13.232422 C 5.9786562 13.108422 5 13.985328 5 15.111328 C 5 16.154328 5.8456719 17 6.8886719 17 L 8.9960938 17 A 1.0001 1.0001 0 0 0 9.0449219 17.294922 L 12.955078 30.001953 C 10.214968 30.026329 8 32.254144 8 35 C 8 37.370691 9.654634 39.347246 11.869141 39.861328 L 7.484375 46 L 5 46 A 1.0001 1.0001 0 1 0 5 48 L 7.9746094 48 A 1.0010464 1.0010464 0 0 0 8.0410156 48 L 11 48 A 1.0001 1.0001 0 1 0 11 46 L 9.9453125 46 L 13.814453 40.582031 A 1.0001 1.0001 0 0 0 14.003906 39.892578 C 16.284075 39.612622 21.60047 38.643208 26.486328 37.707031 A 1.0002831 1.0002831 0 0 0 26.625 38.466797 C 28.410274 41.196366 31.501841 43 35 43 C 36.326677 43 37.590185 42.733566 38.75 42.261719 L 41.865234 46 L 41 46 A 1.0001 1.0001 0 1 0 41 48 L 43.816406 48 A 1.0001 1.0001 0 0 0 44.214844 48 L 47 48 A 1.0001 1.0001 0 1 0 47 46 L 44.46875 46 L 40.556641 41.306641 C 43.233075 39.509699 45 36.456779 45 33 C 45 27.488666 40.511334 23 35 23 C 34.939511 23 34.880552 23.004786 34.820312 23.005859 L 32.150391 9.7734375 L 39.337891 7.1914062 A 1.0001 1.0001 0 0 0 39.851562 6.7734375 L 41.851562 3.5234375 A 1.0001 1.0001 0 0 0 41.044922 1.9882812 z M 35 25 C 39.430666 25 43 28.569334 43 33 C 43 36.01593 41.344197 38.630492 38.890625 39.994141 A 1.0001 1.0001 0 0 0 38.259766 40.304688 C 37.264111 40.747916 36.163482 41 35 41 C 32.188159 41 29.727554 39.555524 28.298828 37.371094 A 1.0002831 1.0002831 0 0 0 28.289062 37.357422 C 31.673103 36.699614 34.599618 36.114858 35 36 C 36.593 35.542 38 34.657 38 33 C 38 31.343 36.657 30 35 30 L 27.585938 30 C 28.771171 27.071783 31.633879 25 35 25 z M 13 33 C 14.104 33 15 33.895 15 35 C 15 36.104 14.104 37 13 37 C 11.896 37 11 36.104 11 35 C 11 33.895 11.896 33 13 33 z M 15.830078 34 L 20 34 C 20.552 34 21 34.448 21 35 C 21 35.552 20.552 36 20 36 L 15.830078 36 C 15.830078 36 16 35.478 16 35 C 16 34.522 15.830078 34 15.830078 34 z"/>
</svg>
