<?xml version="1.0"?>
<svg xmlns="http://www.w3.org/2000/svg" width="50" height="50" viewBox="0 0 50 50">
    <path style="text-indent:0;text-align:start;line-height:normal;text-transform:none;block-progression:tb;-inkscape-font-specification:Bitstream Vera Sans" d="M 19.5 0 C 17.014718 0 15 2.0147186 15 4.5 C 15 6.9852814 17.014718 9 19.5 9 C 21.985281 9 24 6.9852814 24 4.5 C 24 2.0147186 21.985281 1.6775902e-16 19.5 0 z M 15 8.90625 C 14.7 8.90625 14.2875 9 14.1875 9 L 6.6875 10.6875 C 6.0875 10.7875 5.60625 11.2125 5.40625 11.8125 L 2.625 18.21875 C 2.225 19.11875 2.604 20.17 3.625 20.625 C 4.646 21.08 5.79375 20.326 6.09375 19.625 L 8.40625 14.1875 L 11.6875 13.40625 L 9.09375 23.6875 C 8.49375 26.2875 9.99375 27.7125 11.09375 27.8125 L 18.5 29.09375 L 19.5 36.8125 C 19.7 38.0115 20.6125 38.8125 21.8125 38.8125 L 22.09375 38.8125 C 23.39375 38.6125 24.19375 37.4875 24.09375 36.1875 L 22.8125 27 C 22.7125 26 21.90625 25.2 20.90625 25 L 16.8125 24.1875 L 18.5 16.5 L 21 20.1875 C 21.3 20.6875 21.89375 21.09375 22.59375 21.09375 C 22.79375 21.09375 22.9875 21.1 23.1875 21 L 29.6875 18.84375 C 30.6875 18.34375 31.20625 17.34375 30.90625 16.34375 C 30.60525 15.34375 29.49475 14.85625 28.59375 15.15625 L 23.40625 16.90625 C 23.40625 16.90625 19.8125 11.5875 19.3125 10.6875 C 18.8125 9.7875 18.1125 9.60625 17.3125 9.40625 C 17.3125 9.40625 15.5 8.90625 15 8.90625 z M 40 24 L 40 25 L 40 29 L 34 29 L 33 29 L 33 30 L 33 34 L 27 34 L 26 34 L 26 35 L 26 39 L 20 39 L 19 39 L 19 40 L 19 44 L 13 44 L 12 44 L 12 45 L 12 50 L 14 50 L 14 46 L 20 46 L 21 46 L 21 45 L 21 41 L 27 41 L 28 41 L 28 40 L 28 36 L 34 36 L 35 36 L 35 35 L 35 31 L 41 31 L 42 31 L 42 30 L 42 26 L 49 26 L 49 24 L 41 24 L 40 24 z M 8.90625 28.9375 L 8 31.8125 L 1.96875 37.90625 C 1.06875 38.80625 1.06875 40.2865 1.96875 41.1875 C 2.46875 41.5865 2.9625 41.90625 3.5625 41.90625 C 4.1625 41.90625 4.75625 41.6875 5.15625 41.1875 L 11.59375 34.6875 C 11.89375 34.3875 12.0875 33.99475 12.1875 33.59375 L 13.0625 30.1875 L 10.8125 29.78125 C 10.1315 29.69925 9.48925 29.3795 8.90625 28.9375 z" overflow="visible" enable-background="accumulate" font-family="Bitstream Vera Sans"/>
</svg>
