<?xml version="1.0" encoding="iso-8859-1"?>
<!-- Generator: Adobe Illustrator 17.1.0, SVG Export Plug-In . SVG Version: 6.00 Build 0)  -->
<!DOCTYPE svg PUBLIC "-//W3C//DTD SVG 1.1//EN" "http://www.w3.org/Graphics/SVG/1.1/DTD/svg11.dtd">
<svg version="1.1" id="Capa_1" xmlns="http://www.w3.org/2000/svg" xmlns:xlink="http://www.w3.org/1999/xlink" x="0px" y="0px"
	 viewBox="0 0 361.828 361.828" style="enable-background:new 0 0 361.828 361.828;" xml:space="preserve">
<path d="M80.552,246.979l-28.265,83.399h11.762c4.971,0,9,4.029,9,9s-4.029,9-9,9H40.016c-0.094,0.003-0.188,0.005-0.281,0.005
	c-0.7,0-1.41-0.083-2.115-0.254c-0.662-0.159-1.295-0.392-1.892-0.688c-1.279-0.634-2.354-1.546-3.176-2.635
	c-1.001-1.322-1.646-2.93-1.79-4.679c-0.033-0.407-0.04-0.818-0.018-1.231c0.05-0.941,0.244-1.845,0.562-2.688l32.199-95.006
	c1.595-4.708,6.708-7.233,11.412-5.635C79.625,237.162,82.148,242.272,80.552,246.979z M51.532,50.973
	c0-20.693,16.836-37.528,37.529-37.528c20.694,0,37.53,16.835,37.53,37.528s-16.836,37.529-37.53,37.529
	C68.368,88.503,51.532,71.667,51.532,50.973z M69.532,50.973c0,10.769,8.761,19.529,19.529,19.529s19.53-8.761,19.53-19.529
	c0-10.768-8.762-19.528-19.53-19.528S69.532,40.206,69.532,50.973z M352.828,159.078h-56.434c-4.971,0-9,4.029-9,9v49.437h-47.432
	c-4.971,0-9,4.029-9,9v47.434h-47.432c-4.971,0-9,4.029-9,9v56.433c0,4.971,4.029,9,9,9s9-4.029,9-9v-47.433h47.432
	c4.971,0,9-4.029,9-9v-47.434h47.432c4.971,0,9-4.029,9-9c0-0.339-0.019-0.673-0.055-1.002c0.036-0.329,0.055-0.663,0.055-1.002
	v-47.433h47.434c4.971,0,9-4.029,9-9S357.799,159.078,352.828,159.078z M143.779,154.382c-8.605-21.403-19.849-44.579-44.478-48.642
	c-5.716-0.941-38.647-1.002-45.076,0.198c-23.824,4.453-38.566,26.737-50.515,47.277l-2.491,4.285
	c-1.374,2.362-1.6,5.22-0.614,7.769l19.919,51.526c1.792,4.636,7.005,6.94,11.64,5.149c4.636-1.792,6.941-7.004,5.149-11.64
	l-18.36-47.495l0.317-0.546c10.397-17.872,21.916-35.577,38.246-38.63c4.279-0.729,34.424-0.832,38.857-0.135
	c13.903,2.294,22.057,16.086,30.704,37.596l28.384,70.611c1.412,3.512,4.787,5.646,8.354,5.646c1.117,0,2.254-0.209,3.354-0.651
	c4.612-1.854,6.848-7.096,4.994-11.707L143.779,154.382z M138.391,330.378h-16.386l-21.448-168.765
	c-0.626-4.933-5.144-8.422-10.063-7.794c-4.931,0.627-8.42,5.133-7.793,10.063l22.416,176.389c0.333,3.379,2.535,6.21,5.559,7.443
	c1.054,0.431,2.201,0.666,3.389,0.666c0.077,0,0.154-0.001,0.231-0.003h24.095c4.971,0,9-4.029,9-9S143.361,330.378,138.391,330.378
	z"/>
<g>
</g>
<g>
</g>
<g>
</g>
<g>
</g>
<g>
</g>
<g>
</g>
<g>
</g>
<g>
</g>
<g>
</g>
<g>
</g>
<g>
</g>
<g>
</g>
<g>
</g>
<g>
</g>
<g>
</g>
</svg>
