<?xml version="1.0"?>
<svg xmlns="http://www.w3.org/2000/svg" viewBox="0 0 24 24">
    <path d="M 11.46875 2 C 10.884436 2.0165728 10.319466 2.3898793 10.09375 2.96875 C 9.7927959 3.7405777 10.196922 4.6052959 10.96875 4.90625 C 11.740578 5.2072041 12.605296 4.8030777 12.90625 4.03125 C 13.207204 3.2594223 12.803078 2.3947041 12.03125 2.09375 C 11.838293 2.0185115 11.663521 1.9944757 11.46875 2 z M 16.625 3.9375 L 12.59375 5.6875 C 12.62675 5.7075 12.6585 5.731 12.6875 5.75 C 13.0695 6.01 13.633 6.2915 14.25 6.5625 L 16.4375 5.59375 L 16.09375 8.40625 C 15.980624 8.3680495 12.988022 7.3687021 11.65625 6.46875 C 11.12725 6.11175 9.53 5.55675 9 6.59375 C 8.635 7.30675 8.147 9.157 7.875 10.375 C 7.701 11.157 7.88975 11.469 8.21875 11.875 L 10.375 14.34375 L 10.4375 18 L 12.1875 18 C 12.1805 16.967 12.179 15.231 12.25 14.5 C 12.302 13.969 12.2835 13.76125 12.0625 13.28125 L 10.53125 11.09375 L 11.34375 8.375 L 15.90625 10.03125 L 14.84375 19 L 2 19 L 2 20 C 3.956 21.304 6.24275 22 8.59375 22 L 15.40625 22 C 17.75725 22 20.044 21.304 22 20 L 22 19 L 15.875 19 L 17.59375 4.0625 L 16.625 3.9375 z M 7.65625 12.59375 L 5.75 18 L 7.53125 18 L 8.9375 14 L 7.65625 12.59375 z"/>
</svg>
