<?xml version="1.0"?>
<svg xmlns="http://www.w3.org/2000/svg" version="1" viewBox="0 0 26 26" enable-background="new 0 0 26 26">
    <path style="text-indent:0;text-align:start;line-height:normal;text-transform:none;block-progression:tb;-inkscape-font-specification:Bitstream Vera Sans" d="M 8.96875 -0.03125 A 1.0001 1.0001 0 0 0 8.78125 0 A 1.0001 1.0001 0 0 0 8.09375 1.40625 L 9.875 5.59375 A 1.0001 1.0001 0 0 0 10.5 6.15625 L 13.53125 7.09375 L 9.625 10.90625 L 9.53125 11 L 9.5 11 A 1.250125 1.250125 0 0 0 9.15625 11.9375 L 9.3125 16.125 L 4.84375 18.375 A 1.2577882 1.2577882 0 1 0 5.96875 20.625 L 11.15625 18.03125 A 1.250125 1.250125 0 0 0 11.84375 16.84375 L 11.75 14.40625 L 15.09375 16.8125 L 14.09375 20.78125 A 1.250125 1.250125 0 0 0 14.84375 22.40625 L 1.34375 20.3125 A 1.0001 1.0001 0 0 0 0.96875 20.3125 A 1.0001 1.0001 0 0 0 1.03125 22.28125 L 2.59375 22.53125 L 0.90625 25 C 0.90625 25 4.5630826 24.63787 5.96875 23.0625 L 24.84375 26 A 1.0121334 1.0121334 0 1 0 25.15625 24 L 15.34375 22.46875 A 1.250125 1.250125 0 0 0 16.5 21.40625 L 17.71875 16.59375 A 1.250125 1.250125 0 0 0 17.21875 15.28125 L 14.28125 13.15625 L 18.1875 9.59375 L 23.375 13.78125 A 1.0004882 1.0004882 0 1 0 24.625 12.21875 L 17.21875 6.21875 A 1.0001 1.0001 0 0 0 16.90625 6.03125 L 11.53125 4.375 L 9.90625 0.59375 A 1.0001 1.0001 0 0 0 8.96875 -0.03125 z M 18.5 1 C 17.119288 1 16 2.1192881 16 3.5 C 16 4.8807119 17.119288 6 18.5 6 C 19.880712 6 21 4.8807119 21 3.5 C 21 2.1192881 19.880712 1 18.5 1 z" overflow="visible" enable-background="accumulate" font-family="Bitstream Vera Sans"/>
</svg>
