<?xml version="1.0"?>
<svg xmlns="http://www.w3.org/2000/svg" width="50" height="50" viewBox="0 0 50 50">
    <path style="text-indent:0;text-align:start;line-height:normal;text-transform:none;block-progression:tb;-inkscape-font-specification:Bitstream Vera Sans" d="M 24.5625 0 C 22.077219 0 20.0625 2.0147186 20.0625 4.5 C 20.0625 6.9852814 22.077219 9 24.5625 9 C 27.047782 9 29.0625 6.9852814 29.0625 4.5 C 29.0625 2.0147186 27.047782 3.3551805e-16 24.5625 0 z M 19.59375 10 C 19.09375 10 18.5 10.1125 18 10.3125 L 11.1875 12.59375 C 10.6875 12.79375 10.29375 13.09375 10.09375 13.59375 L 6.84375 19.8125 C 6.34375 20.7125 6.54375 21.80625 7.34375 22.40625 C 8.34375 23.10625 9.74375 22.81875 10.34375 21.71875 L 13.09375 16.40625 L 17.6875 14.59375 L 14.90625 23.1875 C 14.30625 25.2875 15.6 26.6 16 27 L 21.8125 31.6875 L 18.8125 39.6875 C 18.3125 40.8875 18.9875 42.3125 20.1875 42.8125 C 20.3875 43.0125 20.7 43 21 43 C 19.237729 43.098625 17.928514 43.183508 16.1875 43.28125 C 9.6105 43.64925 3.386 43.995 3 44 C 1.346 44 0 45.346 0 47 C 0 48.654 1.346 50 3 50 L 35.53125 50 C 34.57725 48.938 34 47.537 34 46 C 34 44.567 34.50275 43.25175 35.34375 42.21875 C 31.904445 42.399574 26.480456 42.683157 21.375 42.96875 C 22.221289 42.840234 22.925 42.28125 23.1875 41.40625 L 26.8125 31.8125 C 27.2125 30.8125 26.89475 29.69375 26.09375 29.09375 L 22.09375 25.90625 L 24.5 17.90625 L 26.40625 21 C 26.80525 21.6 27.39475 22 28.09375 22 L 35 22 C 36.2 22 37.2 20.8875 37 19.6875 C 36.8 18.6875 35.90625 18 34.90625 18 L 29.3125 18 L 26.1875 13 C 25.0875 11.2 23.10625 10 20.90625 10 L 19.59375 10 z M 48.875 15.59375 A 1.0001 1.0001 0 0 0 48.28125 15.90625 L 41.09375 23.09375 A 1.0001 1.0001 0 1 0 42.5 24.5 L 44.6875 22.3125 L 40.5 42.0625 C 40.335639 42.041854 40.169878 42 40 42 C 37.794 42 36 43.794 36 46 C 36 48.206 37.794 50 40 50 C 42.206 50 44 48.206 44 46 C 44 44.678302 43.365744 43.509933 42.375 42.78125 A 1.0001 1.0001 0 0 0 42.375 42.71875 L 47.28125 19.8125 A 1.0001 1.0001 0 0 0 47.3125 19.71875 L 49.71875 17.3125 A 1.0001 1.0001 0 0 0 48.875 15.59375 z M 14.21875 28 L 13.09375 30.09375 L 6.5 29.59375 C 5.2 29.49375 4.00625 30.5125 3.90625 31.8125 C 3.80625 33.1125 4.79375 34.30525 6.09375 34.40625 C 6.09375 34.40625 14.49375 35 14.59375 35 C 15.49375 35 16.4125 34.39375 16.8125 33.59375 L 17.90625 31.125 L 14.75 28.5625 L 14.65625 28.5 L 14.59375 28.40625 C 14.45875 28.27025 14.33575 28.137 14.21875 28 z M 3 46 C 3.551 46 4 46.448 4 47 C 4 47.552 3.551 48 3 48 C 2.449 48 2 47.552 2 47 C 2 46.448 2.449 46 3 46 z" overflow="visible" enable-background="accumulate" font-family="Bitstream Vera Sans"/>
</svg>
