<?xml version="1.0"?>
<svg xmlns="http://www.w3.org/2000/svg" width="50" height="50" viewBox="0 0 50 50">
    <path d="M 16.5 9 C 14.014719 9 12 11.014719 12 13.5 C 12 15.985281 14.014719 18 16.5 18 C 18.985281 18 21 15.985281 21 13.5 C 21 11.014719 18.985281 9 16.5 9 z M 27.1875 9 C 24.7875 9 22.8 10.9125 23 13.3125 C 23 14.0125 23.2 14.5875 23.5 15.1875 C 23.8 15.7875 29.1875 24.09375 29.1875 24.09375 L 23.5 29.8125 C 22.8 30.5125 22.7125 31.60525 23.3125 32.40625 C 23.7125 32.80525 24.1875 33.09375 24.6875 33.09375 C 25.1875 33.09375 25.7 32.89475 26 32.59375 L 33 25.59375 C 33.6 24.99375 33.80625 24.10625 33.40625 23.40625 L 31 18 L 42 18 L 41.1875 28 C 41.0865 28.6 41.1115 29.30625 41.3125 29.90625 L 44.5 41.1875 C 44.8 42.0865 45.59375 42.9 46.59375 43 C 48.29375 43.2 49.59375 41.50625 49.09375 39.90625 L 46.1875 29.5 C 46.0865 29.1 46.0865 28.80625 46.1875 28.40625 C 46.0875 28.40625 50 15.8 50 15 L 50 14 C 50 11.2 47.8 9 45 9 L 27.1875 9 z M 10.0625 12.65625 L 0 17.5 L 0 23.8125 L 11.90625 18.09375 C 10.73425 16.91675 10 15.288 10 13.5 C 10 13.217 10.0265 12.92925 10.0625 12.65625 z M 22.03125 21.8125 C 21.7755 21.8125 21.53925 21.89825 21.34375 22.09375 L 19.5625 23.875 L 18.40625 22.6875 L 17 24.09375 L 18.15625 25.28125 L 16.03125 27.40625 C 15.84325 27.59225 15.71875 27.82675 15.71875 28.09375 C 15.71875 28.35975 15.84325 28.6245 16.03125 28.8125 L 18.40625 31.21875 C 18.60125 31.41275 18.869 31.5 19.125 31.5 C 19.381 31.5 19.64875 31.41275 19.84375 31.21875 L 25.125 25.90625 C 25.313 25.71825 25.4375 25.4525 25.4375 25.1875 C 25.4375 24.9225 25.313 24.688 25.125 24.5 L 22.75 22.09375 C 22.5545 21.89825 22.287 21.8125 22.03125 21.8125 z M 4 24.09375 L 2 25.0625 L 2 41 L 0 41 L 0 43 L 6 43 L 6 41 L 4 41 L 4 24.09375 z M 30.9375 30.6875 C 30.68175 30.6875 30.41425 30.804 30.21875 31 L 24.90625 36.3125 C 24.51525 36.7045 24.51525 37.32775 24.90625 37.71875 L 27.3125 40.09375 C 27.4985 40.28175 27.76425 40.40625 28.03125 40.40625 C 28.29525 40.40625 28.52975 40.28175 28.71875 40.09375 L 30.6875 38.125 L 31.65625 39.1875 L 33.125 37.8125 L 32.09375 36.71875 L 34.03125 34.8125 C 34.22025 34.6255 34.3125 34.35975 34.3125 34.09375 C 34.3125 33.82675 34.21925 33.59425 34.03125 33.40625 L 31.625 31 C 31.4295 30.804 31.19325 30.6875 30.9375 30.6875 z"/>
</svg>
