<?xml version="1.0" encoding="utf-8"?><svg version="1.1" id="Layer_1" xmlns="http://www.w3.org/2000/svg" xmlns:xlink="http://www.w3.org/1999/xlink" x="0px" y="0px" viewBox="0 0 95.77 122.88" style="enable-background:new 0 0 95.77 122.88" xml:space="preserve"><style type="text/css">.st0{fill-rule:evenodd;clip-rule:evenodd;}</style><g><path class="st0" d="M72.52,67.74c2.52,5.1,3.94,10.84,3.94,16.92c0,9.45-3.43,18.11-9.12,24.78l-8.64-8.64 c3.51-4.44,5.6-10.05,5.6-16.15c0-14.4-11.67-26.07-26.07-26.07c-6.1,0-11.71,2.09-16.15,5.6l-8.63-8.63 c5.32-4.54,11.91-7.64,19.16-8.71l-0.13-0.06l17.18-18.79l-10.48-6.47L27.05,33.07c-2.86,2.72-7.38,2.61-10.1-0.25 c-2.72-2.86-2.61-7.38,0.25-10.1L33.3,7.39l-0.01-0.01c2.56-2.44,6.48-2.61,9.22-0.56l22.63,13.96c0.3,0.19,0.59,0.39,0.86,0.62 l6.3,3.35c6.82,3.63,7.39,10,2.24,15.75L62.5,53.94l25.66-1.6v-0.01c3.94-0.25,7.34,2.76,7.59,6.7c0.01,0.15,0.02,0.31,0.02,0.46 c0,0.3-0.02,0.59-0.06,0.89l-2.68,37.96c-0.28,3.94-3.7,6.9-7.64,6.63c-3.94-0.28-6.91-3.7-6.63-7.64l2.13-30.21L72.52,67.74 L72.52,67.74L72.52,67.74z M79.5,0c6.68,0,12.1,5.41,12.1,12.1c0,6.68-5.42,12.1-12.1,12.1c-6.68,0-12.1-5.42-12.1-12.1 C67.4,5.41,72.82,0,79.5,0L79.5,0z M59.29,116.56c-6.04,3.99-13.28,6.32-21.06,6.32C17.11,122.88,0,105.77,0,84.65 c0-7.78,2.33-15.02,6.32-21.06l8.86,8.86c-1.93,3.64-3.03,7.79-3.03,12.2c0,14.4,11.67,26.07,26.07,26.07 c4.41,0,8.56-1.1,12.2-3.03L59.29,116.56L59.29,116.56L59.29,116.56z"/></g></svg>