<?xml version="1.0" encoding="utf-8"?>
<!-- Generated by IcoMoon.io -->
<!DOCTYPE svg PUBLIC "-//W3C//DTD SVG 1.1//EN" "http://www.w3.org/Graphics/SVG/1.1/DTD/svg11.dtd">
<svg version="1.1" xmlns="http://www.w3.org/2000/svg" xmlns:xlink="http://www.w3.org/1999/xlink" width="512" height="512" viewBox="0 0 512 512">
<g>
</g>
	<path d="M7029.965 37002.681c0 15.394-12.48 27.874-27.873 27.874-15.394 0-27.873-12.48-27.873-27.874 0-15.394 12.48-27.874 27.873-27.874 15.394 0 27.873 12.48 27.873 27.874z" fill="#000000" />
	<path d="M6832.282 37085.624l-1.218 0.215-1.177 0.563z" fill="#000000" />
	<path d="M6870.681 37069.957l-0.051-0.502c-0.113-0.942-0.072-1.863-0.041-2.775l-39.526 19.149 1.218-0.215-2.386 0.778 1.167-0.563-20.89 3.645 30.966 5.56 34.498-12.165-4.792-12.462-0.164-0.45z" fill="#000000" />
	<path d="M6844.068 37101.056l-2.233-0.399-2.099 0.707z" fill="#000000" />
	<path d="M6877.44 37088.921l-35.605 11.735 2.233 0.399-4.332 0.297 2.099-0.696-72.212-12.861-2.663 1.382-26.276 23.327 29.757-6.533-0.973-0.185 5.611-0.84-4.639 1.024 72.704 12.944 2.15-0.696 47.626-15.719c-3.123-0.717-6.073-2.038-8.663-4.065-3.175-2.519-5.448-5.817-6.82-9.513z" fill="#000000" />
	<path d="M6769.48 37105.797l0.973 0.185 4.639-1.024z" fill="#000000" />
	<path d="M6878.535 37067.366c0 0.297-0.113 0.573-0.092 0.912l4.598 11.981 1.813-0.645-6.318-12.247z" fill="#000000" />
	<path d="M6885.079 37086.402c0.87 2.253 2.119 4.321 4.065 5.857 2.898 2.304 6.502 3.318 10.168 2.898 0 0 2.498-0.297 6.38-0.738l-4.403-13.363-16.21 5.346z" fill="#000000" />
	<path d="M6997.391 37038.622h-0.092l0.020 0.082z" fill="#000000" />
	<path d="M6876.16 37083.904c0.041 0.256 0.133 0.522 0.174 0.778l0.072 0.185-0.246-0.963z" fill="#000000" />
	<path d="M6978.887 37030.635l0.123 0.020 0.409-0.103z" fill="#000000" />
	<path d="M6878.434 37068.575c-0.020-0.113 0.020-0.215 0.020-0.287l-0.246-0.676 0.225 0.963z" fill="#000000" />
	<path d="M7061.985 37029.868l-63.815 12.585-24.167 5.264c5.427 6.082 18.473 16.589 31.181 29.122l60.877-32.082 184.709 7.004 2.078-11.315-190.864-10.578z" fill="#000000" />
	<path d="M7081.626 37082.696l-6.451-4.188-5.52 5.468z" fill="#000000" />
	<path d="M7102.331 37051.556l-27.157 26.952 6.451 4.188-11.971 1.28 5.52-5.468-27.648-17.838-19.671 10.086 49.89 32.226 5.499-5.478 43.12-44.964z" fill="#000000" />
	<path d="M7029.637 37089.065l-5.673-4.649-6.492 5.223z" fill="#000000" />
	<path d="M7066.736 37050.204l-42.773 34.212 5.673 4.649-12.165 0.573 6.492-5.223-8.766-7.137-10.834 5.56-3.4-2.704-34.97-33.26-8.468 11.796 66.959 50.463 5.878-5.315 58.675-52.9z" fill="#000000" />
	<path d="M6970.43 37040.702l-3.789 5.274 7.711-2.079z" fill="#000000" />
	<path d="M6965.412 37046.302l0.583 0.573 0.645-0.901z" fill="#000000" />
	<path d="M6966.641 37045.975l7.711-2.079c0 0 16.773-3.881 18.821-4.423-2.222-5.683-7.824-9.503-14.162-8.817l-88.412 22.518c-7.178 0.84-12.267 7.096-12.052 14.192l6.318 12.247-1.813 0.645 0.686 1.792 0.185 0.45 0.051 0.502c0.133 1.198 0.666 2.304 1.106 3.399l16.22-5.335 4.403 13.363c19.763-2.304 79.544-9.277 79.565-9.277 2.058-0.215 3.953-1.116 5.703-2.283l-12.913-24.535-12.052-11.448 0.635-0.912z" fill="#000000" />
	<path d="M197.751 435.181l210.191-428.109 9.403 4.617-210.191 428.109-9.403-4.616z" fill="#000000" />
	<path d="M189.86 409.498l201.575-398.111-228.137 230.206z" fill="#000000" />
	<path d="M479.909 480.822l-447.805 1.12-0.026-10.455 447.805-1.12 0.026 10.455z" fill="#000000" />
	<path d="M476.27 504.942l-440.914-0.080 0.002-10.455 440.914 0.080-0.002 10.455z" fill="#000000" />
	<path d="M138.343 445.778l137.462 35.645 31.314-5.98 4.014-15.442-165.376-42.865z" fill="#000000" />
	<path d="M383.007 285.522c0 10.137-8.192 18.381-18.35 18.381s-18.381-8.243-18.381-18.381c0-10.178 8.223-18.381 18.381-18.381s18.35 8.202 18.35 18.381z" fill="#000000" />
	<path d="M285.225 362.301l-29.594 33.014-0.471 1.925-12.339 51.62 15.298 3.635 11.858-49.664-1.31 1.485 1.782-3.42-0.471 1.935 26.091-29.102c-2.775-1.976-5.017-3.604-5.017-3.604-2.816-2.007-4.772-4.782-5.827-7.824z" fill="#000000" />
	<path d="M268.667 404.316l1.31-1.474 0.471-1.945z" fill="#000000" />
	<path d="M323.308 297.298l-26.163 6 1.526 0.379-3.072-0.041 1.536-0.338-26.501-6.759-3.205 12.677 29.532 7.516 1.526-0.338 13.107-2.98c6.072-8.458 10.875-15.196 10.875-15.175 0.276-0.358 0.594-0.625 0.839-0.942z" fill="#000000" />
	<path d="M298.68 303.678l-1.526-0.379-1.546 0.338z" fill="#000000" />
	<path d="M295.649 363.755l15.421 11.038c1.863 1.321 4.086 1.863 6.329 1.495 2.233-0.399 4.199-1.598 5.509-3.44 0.010-0.021 35.205-49.142 35.205-49.142 1.321-1.843 1.843-4.075 1.485-6.339-0.358-2.222-1.567-4.178-3.43-5.499l-15.401-11.038c-1.863-1.341-4.116-1.884-6.37-1.485-2.233 0.358-4.168 1.598-5.478 3.44l-35.226 49.101c-2.745 3.81-1.863 9.134 1.956 11.868z" fill="#000000" />
	<path d="M334.387 299.356c2.253-0.399 4.505 0.144 6.37 1.485l15.401 11.038c1.863 1.321 3.072 3.277 3.43 5.499 0.358 2.263-0.164 4.495-1.485 6.339 0 0-35.195 49.122-35.205 49.142-1.31 1.843-3.277 3.041-5.509 3.44-2.243 0.358-4.475-0.185-6.329-1.495l-15.421-11.038c-3.82-2.745-4.7-8.059-1.966-11.858l35.226-49.101c1.321-1.843 3.267-3.082 5.488-3.451z" fill="#000000" />
	<path d="M343.9 309.699l-51.415 13.159 3.44 0.062-36.362-10.66-3.676 12.585 38.113 11.161 1.731-0.461 51.415-13.189z" fill="#000000" />
	<path d="M309.248 361.964l-31.13 39.536-0.409 1.618-12.012 46.981 15.227 3.922 12.012-47.022-1.423 2.918 30.096-38.236z" fill="#000000" />
</svg>
