<?xml version="1.0"?>
<svg xmlns="http://www.w3.org/2000/svg" version="1" width="24" height="24" viewBox="0 0 24 24">
    <path d="M 9.84375 0 A 1.0001 1.0001 0 0 0 9.1875 0.40625 L 6.1875 4.40625 A 1.0001 1.0001 0 0 0 6.1875 5.59375 L 9 9.34375 L 9 13 L 9 18 A 1.0001 1.0001 0 0 0 9.03125 18.1875 L 10.03125 23.1875 A 1.0001 1.0001 0 1 0 11.96875 22.8125 L 11.03125 18.09375 L 12 15 L 14.9375 16.3125 L 12.40625 18.1875 A 1.0063276 1.0063276 0 1 0 13.59375 19.8125 L 17.59375 16.8125 A 1.0001 1.0001 0 0 0 17.4375 15.09375 L 17.0625 14.90625 L 14.3125 12.8125 L 15 9.3125 L 17.8125 5.59375 A 1.0001 1.0001 0 0 0 17.8125 4.40625 L 14.8125 0.40625 A 1.0001 1.0001 0 0 0 13.84375 0 A 1.0001 1.0001 0 0 0 13.1875 1.59375 L 15.75 5 L 14.15625 7.125 C 13.632932 7.5659563 12.882256 8 12 8 C 10.921875 8 9.7667816 6.8892944 9.1875 6.25 C 9.1623138 6.2222046 9.1166016 6.1820312 9.09375 6.15625 L 8.25 5 L 10.8125 1.59375 A 1.0001 1.0001 0 0 0 9.84375 0 z M 12 3 C 10.895431 3 10 3.8954305 10 5 C 10 6.1045695 10.895431 7 12 7 C 13.104569 7 14 6.1045695 14 5 C 14 3.8954305 13.104569 3 12 3 z"/>
</svg>
